<svg xmlns="http://www.w3.org/2000/svg" width="190" height="180" viewBox="0 0 190 180">
  <g id="Grupo_115776" data-name="Grupo 115776" transform="translate(-495 -8445)">
    <g id="Grupo_109306" data-name="Grupo 109306" transform="translate(0 525)">
      <g id="Grupo_107626" data-name="Grupo 107626" transform="translate(105 5388)">
        <rect id="Rectángulo_36952" data-name="Rectángulo 36952" width="190" height="180" transform="translate(390 2532)" fill="#fff"/>
      </g>
      <g id="isla" transform="translate(510 7930)">
        <g id="Grupo_109237" data-name="Grupo 109237" transform="translate(2.343 2.344)">
          <path id="Trazado_158543" data-name="Trazado 158543" d="M346.861,164.324s-12.809,22.917-9.4,60.357l16.831,2.4s-8.828-29.638-1.74-62.29Z" transform="translate(-301.909 -115.317)" fill="#fc979b"/>
          <path id="Trazado_158544" data-name="Trazado 158544" d="M193.708,131.205S236.228,96,244.093,133.98a1.038,1.038,0,0,1-1.507,1.123c-5.453-2.928-22.306-9.953-47.826-2.2Z" transform="translate(-146.992 -82.333)" fill="#bae477"/>
          <path id="Trazado_158545" data-name="Trazado 158545" d="M392.362,87.437S381.449,33.32,351.445,57.9a1.038,1.038,0,0,0,.465,1.822c6.081,1.153,23.6,6.291,38.565,28.372Z" transform="translate(-344.413 -37.751)" fill="#bae477"/>
          <g id="Grupo_109234" data-name="Grupo 109234" transform="translate(4.041)">
            <path id="Trazado_158546" data-name="Trazado 158546" d="M395.918,161.582s-54.682-7.591-41.4,28.854a1.038,1.038,0,0,0,1.873.163c3.1-5.358,13.74-20.195,39.526-27.017Z" transform="translate(-352.439 -112.981)" fill="#a7e446"/>
            <path id="Trazado_158547" data-name="Trazado 158547" d="M227.162,162.809s55.15,2.493,35.452,35.91a1.038,1.038,0,0,1-1.871-.181c-2.071-5.833-9.833-22.359-33.945-33.763Z" transform="translate(-184.123 -114.276)" fill="#a7e446"/>
            <path id="Trazado_158548" data-name="Trazado 158548" d="M310.364,57.849S344.816,14.713,306.7,7.521a1.038,1.038,0,0,0-1.1,1.527c3.024,5.4,10.346,22.127,3.043,47.78Z" transform="translate(-266.488 -7.502)" fill="#a7e446"/>
          </g>
          <path id="Trazado_158549" data-name="Trazado 158549" d="M187.027,350.659s-26.538-33.333-77.179-33.333-57.692,33.333-57.692,33.333Z" transform="translate(-45.669 -220.506)" fill="#fed866"/>
          <path id="Trazado_158550" data-name="Trazado 158550" d="M341.732,317.327q2.394,0,4.716.1c-46.419,1.971-53.033,33.236-53.033,33.236H284.04S291.091,317.327,341.732,317.327Z" transform="translate(-277.554 -220.507)" fill="#feca2e"/>
          <ellipse id="Elipse_5089" data-name="Elipse 5089" cx="13.75" cy="13.75" rx="13.75" ry="13.75" transform="translate(112.48 15.093)" fill="#feca2e"/>
          <path id="Trazado_158551" data-name="Trazado 158551" d="M99.317,55.8A13.728,13.728,0,0,1,104,56.62a13.754,13.754,0,0,0,0,25.859A13.751,13.751,0,1,1,99.317,55.8Z" transform="translate(26.913 -40.706)" fill="#d9ac28"/>
          <path id="Trazado_158552" data-name="Trazado 158552" d="M170,324.93c2.175.528,4.347-.058,5.342-1.441l2.873-3.988c2.086-2.9-.4-6.921-4.95-8.026s-8.6,1.335-8.078,4.864l.725,4.862c.252,1.685,1.914,3.2,4.088,3.729Z" transform="translate(-72.916 -216.299)" fill="#edf8f9"/>
          <path id="Trazado_158553" data-name="Trazado 158553" d="M381.432,332.114c1.989-1.026,3.246-2.892,3.092-4.589l-.443-4.9c-.322-3.554-4.834-4.969-9-2.821s-5.627,6.645-2.916,8.967l3.733,3.2C377.194,333.083,379.443,333.14,381.432,332.114Z" transform="translate(-342.752 -221.516)" fill="#edf8f9"/>
          <path id="Trazado_158554" data-name="Trazado 158554" d="M7.5,393.587a1.024,1.024,0,0,1,1.123-1.025c5.373.586,5.747,5.352,11.821,5.352,6.472,0,6.472-5.411,12.945-5.411s6.472,5.411,12.943,5.411,6.472-5.411,12.943-5.411,6.471,5.411,12.943,5.411,6.471-5.411,12.942-5.411,6.47,5.411,12.941,5.411,6.471-5.411,12.942-5.411,6.471,5.411,12.943,5.411,6.471-5.411,12.942-5.411,6.471,5.411,12.942,5.411c6.073,0,6.446-4.766,11.818-5.352a1.024,1.024,0,0,1,1.123,1.025V418.13a9.373,9.373,0,0,1-9.373,9.373H16.875A9.373,9.373,0,0,1,7.5,418.13Z" transform="translate(-7.502 -272.191)" fill="#dff7f9"/>
          <path id="Trazado_158555" data-name="Trazado 158555" d="M153.443,463.042H16.876A9.373,9.373,0,0,1,7.5,453.67v-8.39a1.024,1.024,0,0,1,1.123-1.025c5.373.586,5.747,5.353,11.821,5.353,6.472,0,6.472-5.411,12.945-5.411s6.472,5.411,12.943,5.411,6.472-5.411,12.943-5.411,6.471,5.411,12.943,5.411,6.471-5.411,12.942-5.411,6.471,5.411,12.941,5.411,6.471-5.411,12.942-5.411,6.471,5.411,12.943,5.411,6.471-5.411,12.942-5.411,6.471,5.411,12.942,5.411c6.073,0,6.446-4.766,11.818-5.352a1.024,1.024,0,0,1,1.123,1.025v8.389a9.373,9.373,0,0,1-9.372,9.372Z" transform="translate(-7.503 -307.729)" fill="#dff7f9"/>
          <g id="Grupo_109236" data-name="Grupo 109236" transform="translate(0 120.365)">
            <path id="Trazado_158556" data-name="Trazado 158556" d="M445.632,392.678c4.068.444,5.272,3.282,8.251,4.635v20.933a9.373,9.373,0,0,0,9.373,9.373h-9.375a9.373,9.373,0,0,1-9.373-9.373V393.7A1.024,1.024,0,0,1,445.632,392.678Z" transform="translate(-444.509 -392.672)" fill="#cae3e6"/>
            <g id="Grupo_109235" data-name="Grupo 109235" transform="translate(0 16.154)">
              <path id="Trazado_158557" data-name="Trazado 158557" d="M445.632,444.37c4.068.444,5.272,3.282,8.251,4.635v4.78a9.373,9.373,0,0,0,9.373,9.372h-9.375a9.373,9.373,0,0,1-9.373-9.372V445.4A1.024,1.024,0,0,1,445.632,444.37Z" transform="translate(-444.509 -444.364)" fill="#cae3e6"/>
            </g>
          </g>
          <ellipse id="Elipse_5090" data-name="Elipse 5090" cx="6.562" cy="6.562" rx="6.562" ry="6.562" transform="translate(47.124 45.257)" fill="#feca2e"/>
          <ellipse id="Elipse_5091" data-name="Elipse 5091" cx="6.25" cy="6.25" rx="6.25" ry="6.25" transform="translate(35.535 41.706)" fill="#d9ac28"/>
          <ellipse id="Elipse_5092" data-name="Elipse 5092" cx="6.562" cy="6.562" rx="6.562" ry="6.562" transform="translate(44.332 35.882)" fill="#fed866"/>
        </g>
        <g id="Grupo_109238" data-name="Grupo 109238" transform="translate(0 0)">
          <path id="Trazado_158558" data-name="Trazado 158558" d="M65.161,80.719A16.112,16.112,0,0,1,49.067,64.625c.809-21.321,31.381-21.315,32.187,0A16.112,16.112,0,0,1,65.161,80.719Zm0-27.5A11.419,11.419,0,0,0,53.754,64.625c.573,15.111,22.241,15.107,22.812,0A11.419,11.419,0,0,0,65.161,53.219Z" transform="translate(63.412 -33.438)"/>
          <path id="Trazado_158559" data-name="Trazado 158559" d="M95.411,18.4a2.344,2.344,0,0,1-2.344-2.344V11.681a2.344,2.344,0,0,1,4.687,0v4.375A2.343,2.343,0,0,1,95.411,18.4Z" transform="translate(33.162 -6.432)"/>
          <path id="Trazado_158560" data-name="Trazado 158560" d="M97.754,163.681v4.375a2.344,2.344,0,0,1-4.687,0v-4.375A2.344,2.344,0,0,1,97.754,163.681Z" transform="translate(33.162 -110.932)"/>
          <path id="Trazado_158561" data-name="Trazado 158561" d="M55.94,27.724A2.344,2.344,0,0,1,51.88,25.38l2.187-3.789a2.344,2.344,0,1,1,4.059,2.344Z" transform="translate(85.444 -14.039)"/>
          <path id="Trazado_158562" data-name="Trazado 158562" d="M133.269,152.369a2.344,2.344,0,0,1,.858,3.2l-2.187,3.789a2.344,2.344,0,0,1-4.059-2.344l2.187-3.789A2.343,2.343,0,0,1,133.269,152.369Z" transform="translate(-14.306 -104.538)"/>
          <path id="Trazado_158563" data-name="Trazado 158563" d="M28.491,55.172,24.7,57.36A2.344,2.344,0,1,1,22.358,53.3l3.789-2.187a2.344,2.344,0,0,1,2.344,4.059Z" transform="translate(123.717 -34.924)"/>
          <path id="Trazado_158564" data-name="Trazado 158564" d="M160.127,131.172l-3.789,2.188a2.344,2.344,0,1,1-2.344-4.059l3.789-2.187a2.344,2.344,0,1,1,2.344,4.059Z" transform="translate(-49.055 -87.175)"/>
          <path id="Trazado_158565" data-name="Trazado 158565" d="M16.823,96.987H12.448a2.344,2.344,0,0,1,0-4.687h4.375A2.344,2.344,0,0,1,16.823,96.987Z" transform="translate(137.687 -63.457)"/>
          <path id="Trazado_158566" data-name="Trazado 158566" d="M171.112,94.644a2.344,2.344,0,0,1-2.344,2.344h-4.375a2.344,2.344,0,0,1,0-4.687h4.375A2.344,2.344,0,0,1,171.112,94.644Z" transform="translate(-61.758 -63.457)"/>
          <path id="Trazado_158567" data-name="Trazado 158567" d="M24.7,127.113l3.789,2.187a2.344,2.344,0,1,1-2.344,4.059l-3.789-2.187a2.344,2.344,0,0,1,2.344-4.059Z" transform="translate(123.717 -87.175)"/>
          <path id="Trazado_158568" data-name="Trazado 158568" d="M158.953,57.675a2.333,2.333,0,0,1-1.17-.314l-3.789-2.187a2.344,2.344,0,0,1,2.344-4.059l3.789,2.188a2.344,2.344,0,0,1-1.174,4.374Z" transform="translate(-49.056 -34.925)"/>
          <path id="Trazado_158569" data-name="Trazado 158569" d="M55.94,153.226l2.188,3.789a2.344,2.344,0,1,1-4.059,2.344L51.88,155.57a2.344,2.344,0,1,1,4.059-2.344Z" transform="translate(85.444 -104.538)"/>
          <path id="Trazado_158570" data-name="Trazado 158570" d="M133.269,28.582a2.345,2.345,0,0,1-3.2-.858l-2.187-3.789a2.344,2.344,0,0,1,4.059-2.344l2.188,3.789A2.344,2.344,0,0,1,133.269,28.582Z" transform="translate(-14.306 -14.039)"/>
          <path id="Trazado_158571" data-name="Trazado 158571" d="M1.127,121.225a3.353,3.353,0,0,1,2.6-.838,11.307,11.307,0,0,1,6.379,3,47.271,47.271,0,0,1,18.008-17.731c.388-3.258,3.374-6.495,6.873-7.7a120.306,120.306,0,0,1,6.68-39.422q-.323-.1-.635-.219C22.922,65.524,14.961,76.655,12.369,81.137a3.382,3.382,0,0,1-6.1-.534c-3.222-8.839-2.936-16.11.848-21.612C12.9,50.581,25.64,48.331,35.854,48a8.606,8.606,0,0,1,2.553-4.1,65.037,65.037,0,0,0-13.13-10.812,2.344,2.344,0,0,1,2.46-3.99A70.346,70.346,0,0,1,42.853,41.8a8.654,8.654,0,0,1,2.02-.064l.015-.038c-2.733-7.665-8.5-20.292-17.447-22.808-4.329-1.217-9.164.046-14.4,3.756,1.273.337,2.769.793,4.43,1.407a2.344,2.344,0,0,1-1.627,4.4,40.584,40.584,0,0,0-6.437-1.829,3.382,3.382,0,0,1-1.514-5.937c7.33-6.006,14.332-8.128,20.816-6.306C38.245,17.063,44.486,27.76,48.279,37.4q.351-.236.724-.439C50.656,20.076,45.7,9.036,43.456,5.037A3.381,3.381,0,0,1,47.032.062c9.127,1.722,15.2,5.6,18.042,11.542,3.384,7.062,1.95,16.977-4.137,28.715.026.044.052.089.077.134,8.568-4.669,19.862-8.788,28.721-4.837,6.068,2.707,10.108,8.73,12.007,17.9a3.382,3.382,0,0,1-4.911,3.663c-3.77-2.024-13.4-6.162-27.928-5.339,8.6,2.517,17.688,6.974,21.134,14.821,2.67,6.08,1.613,13.252-3.141,21.317a3.382,3.382,0,0,1-6.1-.587c-1.555-4.379-6.641-15.456-20.59-25.364a8.94,8.94,0,0,1-6.685.68,139.566,139.566,0,0,0,.333,34.865,111.589,111.589,0,0,1,38.687,2.28,6.454,6.454,0,0,1,1.8-2.751,10.6,10.6,0,0,1,15.978,3.877,6.316,6.316,0,0,1-.109,4.781,103.884,103.884,0,0,1,24.559,14.93,12.53,12.53,0,0,1,4.981,2.875c1.5,1.254,2.583,2.16,4.967,2.16,4.885.029,5.487-4.726,11.563-5.338A3.39,3.39,0,0,1,160,123.743v24.543A11.73,11.73,0,0,1,148.285,160H137.143a2.344,2.344,0,0,1,0-4.687h11.142a7.037,7.037,0,0,0,7.029-7.029v-6.734a9.565,9.565,0,0,0-2.624,1.764,11.381,11.381,0,0,1-15.949,0c-1.5-1.254-2.583-2.16-4.967-2.16s-3.468.906-4.967,2.16a11.383,11.383,0,0,1-15.949,0c-1.5-1.254-2.583-2.16-4.968-2.16s-3.468.906-4.967,2.16a11.382,11.382,0,0,1-15.949,0c-1.5-1.254-2.583-2.16-4.967-2.16s-3.468.906-4.967,2.16a11.383,11.383,0,0,1-15.95,0c-1.5-1.254-2.583-2.16-4.967-2.16s-3.469.906-4.968,2.16a11.383,11.383,0,0,1-15.949,0c-1.5-1.254-2.583-2.16-4.968-2.16s-3.469.906-4.969,2.16a11.384,11.384,0,0,1-15.951,0,9.563,9.563,0,0,0-2.625-1.764v6.734a7.037,7.037,0,0,0,7.029,7.029H125.749a2.344,2.344,0,0,1,0,4.688H11.719A11.73,11.73,0,0,1,0,148.286V123.743a3.385,3.385,0,0,1,1.124-2.518Zm34.749-68.54c-9.087.307-20.23,2.176-24.9,8.964-2.527,3.673-2.912,8.626-1.157,14.746,3.719-5.485,11.834-14.79,27.09-21.442A8.558,8.558,0,0,1,35.875,52.684ZM84.168,83.2C87,77.525,87.528,72.606,85.745,68.547c-3.1-7.056-12.614-10.9-20.922-12.955a8.847,8.847,0,0,1-1.155,3.152C75.934,67.684,81.681,77.526,84.168,83.2ZM62.264,47.8c16.454-2.344,28.249,1.322,34.242,4-1.717-6.1-4.63-10.1-8.681-11.911-7.5-3.349-17.954.906-25.689,5.293a8.849,8.849,0,0,1-.367,2.162c.171.144.335.3.494.451ZM35.752,102.722a5.183,5.183,0,0,0-3.007,3.62,1.58,1.58,0,0,0,.541,1.485l3.732,3.2a2.958,2.958,0,0,0,2.932-.163,2.957,2.957,0,0,0,1.832-2.3l-.443-4.9a1.58,1.58,0,0,0-.9-1.3,5.181,5.181,0,0,0-4.692.353Zm3.925-5.379a8.048,8.048,0,0,1,3.024.918,6.668,6.668,0,0,1,1.465,1.087q2.46-.611,5.055-1.075c-.434-3.244-.825-6.991-1.068-11.118l-7.837-.924c-.353,3.472-.585,7.179-.639,11.112Zm1.2-15.765,7.071.834c-.081-3.014-.074-6.185.056-9.473l-5.413-.777C41.949,75.012,41.359,78.16,40.878,81.577Zm3.606-35.165a3.906,3.906,0,1,0,3.257,5.376,8.912,8.912,0,0,1-3.257-5.376Zm3.5,11.565a8.585,8.585,0,0,1-1.31.53,93.967,93.967,0,0,0-2.948,9.082l4.543.652c.2-2.743.5-5.55.9-8.4A8.957,8.957,0,0,1,47.986,57.977ZM49.022,44.79a4.219,4.219,0,1,0,4.219-4.219A4.223,4.223,0,0,0,49.022,44.79ZM60.847,13.629c-1.9-3.962-5.933-6.769-12.013-8.363C51.4,10.748,54.939,21.25,53.8,35.9a8.843,8.843,0,0,1,3.6,1.018c3.6-7.272,6.661-16.573,3.441-23.292ZM56.033,58.384a4.235,4.235,0,0,0,3.178-6.991,8.909,8.909,0,0,1-7.152,2.223q-.113.271-.245.531A4.224,4.224,0,0,0,56.033,58.384Zm49.889,44.223a5.183,5.183,0,0,0-3.776-2.808c-1.51-.465-3.843-.093-4.643.765a1.579,1.579,0,0,0-.564,1.476l.725,4.862a3.6,3.6,0,0,0,5.211,1.264l2.872-3.988a1.579,1.579,0,0,0,.175-1.571Zm1.613,7.109-.857,1.189c-1.553,2.244-5.012,3.084-7.8,2.349-3.108-.754-5.461-3.029-5.853-5.662l-.432-2.9c-14.5-3.7-32.226-4.376-46.544-.983l.4,4.431c.24,2.65-1.509,5.416-4.352,6.883-2.582,1.348-5.938,1.423-8.132-.443l-3.732-3.2a6.347,6.347,0,0,1-.935-1,42.331,42.331,0,0,0-15.095,15.262,6.866,6.866,0,0,0,6.054-2.086,11.384,11.384,0,0,1,15.951,0c1.5,1.254,2.583,2.16,4.967,2.16s3.469-.906,4.968-2.16a11.383,11.383,0,0,1,15.95,0c1.5,1.254,2.583,2.16,4.967,2.16s3.468-.906,4.967-2.16a11.382,11.382,0,0,1,15.949,0c1.5,1.254,2.582,2.16,4.967,2.16s3.468-.906,4.967-2.16a11.383,11.383,0,0,1,15.95,0c1.5,1.254,2.583,2.16,4.967,2.16s3.468-.906,4.967-2.16a14.056,14.056,0,0,1,3.822-2.488A101.343,101.343,0,0,0,107.535,109.716ZM4.69,136.692a12.074,12.074,0,0,1,5.632,3.027c1.5,1.254,2.584,2.16,4.969,2.16s3.469-.906,4.969-2.16a11.385,11.385,0,0,1,15.951,0c1.5,1.254,2.583,2.16,4.968,2.16s3.469-.906,4.968-2.16a11.383,11.383,0,0,1,15.95,0c1.5,1.254,2.583,2.16,4.967,2.16s3.468-.906,4.967-2.16a11.382,11.382,0,0,1,15.949,0c1.5,1.254,2.582,2.16,4.967,2.16s3.468-.906,4.967-2.16a11.383,11.383,0,0,1,15.95,0c1.5,1.254,2.583,2.16,4.967,2.16s3.468-.906,4.967-2.16a11.383,11.383,0,0,1,15.949,0c1.5,1.254,2.583,2.16,4.967,2.16s3.468-.906,4.967-2.16a12.07,12.07,0,0,1,5.631-3.027V125.4a9.553,9.553,0,0,0-2.624,1.764,11.382,11.382,0,0,1-15.949,0c-1.5-1.254-2.583-2.16-4.968-2.16s-3.468.906-4.967,2.16a11.383,11.383,0,0,1-15.949,0c-1.5-1.254-2.583-2.16-4.968-2.16s-3.468.906-4.967,2.16a11.382,11.382,0,0,1-15.949,0c-1.5-1.254-2.582-2.16-4.967-2.16s-3.468.906-4.967,2.16a11.383,11.383,0,0,1-15.95,0c-1.5-1.254-2.583-2.16-4.967-2.16s-3.469.906-4.968,2.16a11.383,11.383,0,0,1-15.949,0c-1.5-1.254-2.583-2.16-4.968-2.16s-3.469.906-4.969,2.16a11.385,11.385,0,0,1-15.951,0A9.558,9.558,0,0,0,4.69,125.4v11.3Z" transform="translate(-0.003 -0.002)"/>
        </g>
      </g>
    </g>
  </g>
</svg>
