<svg xmlns="http://www.w3.org/2000/svg" width="80" height="77.429" viewBox="0 0 80 77.429">
  <g id="analisis" transform="translate(0 -8.227)">
    <path id="Trazado_159911" data-name="Trazado 159911" d="M309.026,294.251l-3.757,3.757-2.346,2.345-5.961-6.1,6.031-6.1,2.319,2.345Z" transform="translate(-250.562 -236.187)" fill="#213847"/>
    <path id="Trazado_159912" data-name="Trazado 159912" d="M343.1,306.913l-3.757,3.757-.814-.834a4.158,4.158,0,0,1,.018-5.829l.839-.849Z" transform="translate(-284.632 -248.849)" fill="#324a5e"/>
    <path id="Trazado_159913" data-name="Trazado 159913" d="M350.112,332.077l-5.991,5.991-3.446,3.448-18.651-18.871,9.329-9.432,4.421,4.445Z" transform="translate(-271.707 -257.332)" fill="#d94047"/>
    <path id="Trazado_159914" data-name="Trazado 159914" d="M411.079,356.081l-5.991,5.991-8.352-8.449a8.506,8.506,0,0,1,0-11.961l2.8,2.817Z" transform="translate(-332.673 -281.336)" fill="#fc4b52"/>
    <path id="Trazado_159915" data-name="Trazado 159915" d="M431.627,369.155l-.03.03a3.768,3.768,0,0,1-5.325,0l-4.189-4.178a3.768,3.768,0,0,1-.017-5.319h0Z" transform="translate(-355.198 -296.549)" fill="#fc979b"/>
    <path id="Trazado_159916" data-name="Trazado 159916" d="M79.227,41.922a26.961,26.961,0,1,1-6.633-17.71A26.96,26.96,0,0,1,79.227,41.922Z" transform="translate(-21.353 -5.683)" fill="#fc4b52"/>
    <path id="Trazado_159917" data-name="Trazado 159917" d="M107,66.606A26.963,26.963,0,0,1,64.859,88.887a26.961,26.961,0,0,1,35.51-39.99A26.851,26.851,0,0,1,107,66.606Z" transform="translate(-49.128 -30.367)" fill="#fc7177"/>
    <path id="Trazado_159934" data-name="Trazado 159934" d="M20.162,0A20.162,20.162,0,1,1,0,20.162,20.162,20.162,0,0,1,20.162,0Z" transform="translate(13.006 17.35)" fill="#d94047"/>
    <path id="Trazado_159918" data-name="Trazado 159918" d="M114.741,85.508a18.888,18.888,0,1,1-6.821-14.531A18.888,18.888,0,0,1,114.741,85.508Z" transform="translate(-64.939 -49.269)" fill="#cae3e6"/>
    <path id="Trazado_159919" data-name="Trazado 159919" d="M110.93,81.208A18.886,18.886,0,0,1,79.971,95.734a18.889,18.889,0,0,1,27.951-24.756A18.8,18.8,0,0,1,110.93,81.208Z" transform="translate(-64.94 -49.269)" fill="#edf8f9"/>
    <path id="Trazado_159920" data-name="Trazado 159920" d="M244.652,211.8a3.211,3.211,0,0,1-6.184,1.212,3.179,3.179,0,0,1-.238-1.213,3.212,3.212,0,0,1,3.211-3.213,3.159,3.159,0,0,1,.729.085A3.212,3.212,0,0,1,244.652,211.8Z" transform="translate(-201.007 -169.055)" fill="#d94047"/>
    <path id="Trazado_159921" data-name="Trazado 159921" d="M242.409,209.888A3.212,3.212,0,0,1,239.2,213.1a.849.849,0,0,1-.966-1.3,3.212,3.212,0,0,1,3.211-3.213.85.85,0,0,1,.968,1.3Z" transform="translate(-201.007 -169.055)" fill="#fc4b52"/>
    <path id="Trazado_159922" data-name="Trazado 159922" d="M387.457,71.316a3.211,3.211,0,0,1-6.184,1.212,3.177,3.177,0,0,1-.239-1.213,3.212,3.212,0,0,1,3.211-3.213,3.162,3.162,0,0,1,.729.085A3.212,3.212,0,0,1,387.457,71.316Z" transform="translate(-321.498 -50.52)" fill="#8cbf3b"/>
    <path id="Trazado_159923" data-name="Trazado 159923" d="M385.214,69.4A3.212,3.212,0,0,1,382,72.613a3.146,3.146,0,0,1-.728-.085,3.177,3.177,0,0,1-.239-1.213,3.212,3.212,0,0,1,3.211-3.213,3.162,3.162,0,0,1,.729.085A3.186,3.186,0,0,1,385.214,69.4Z" transform="translate(-321.498 -50.52)" fill="#a7e446"/>
    <path id="Trazado_159924" data-name="Trazado 159924" d="M11.178,307.349a3.211,3.211,0,0,1-6.184,1.212,3.177,3.177,0,0,1-.238-1.212,3.212,3.212,0,0,1,3.211-3.213,3.159,3.159,0,0,1,.729.085A3.211,3.211,0,0,1,11.178,307.349Z" transform="translate(-4.013 -249.673)" fill="#d94047"/>
    <path id="Trazado_159925" data-name="Trazado 159925" d="M8.935,305.435a3.212,3.212,0,0,1-3.213,3.211,3.145,3.145,0,0,1-.728-.085,3.177,3.177,0,0,1-.238-1.212,3.212,3.212,0,0,1,3.211-3.213,3.159,3.159,0,0,1,.729.085A3.185,3.185,0,0,1,8.935,305.435Z" transform="translate(-4.013 -249.673)" fill="#fc4b52"/>
    <path id="Trazado_159926" data-name="Trazado 159926" d="M138.836,178.953a3.211,3.211,0,0,1-6.184,1.212,3.177,3.177,0,0,1-.238-1.213,3.212,3.212,0,0,1,3.211-3.213,3.159,3.159,0,0,1,.729.085A3.212,3.212,0,0,1,138.836,178.953Z" transform="translate(-111.724 -141.339)" fill="#8cbf3b"/>
    <path id="Trazado_159927" data-name="Trazado 159927" d="M136.593,177.039a3.212,3.212,0,0,1-3.213,3.211,3.149,3.149,0,0,1-.728-.085,3.178,3.178,0,0,1-.238-1.212,3.212,3.212,0,0,1,3.211-3.213,3.159,3.159,0,0,1,.729.085A3.185,3.185,0,0,1,136.593,177.039Z" transform="translate(-111.724 -141.339)" fill="#a7e446"/>
    <path id="Trazado_159928" data-name="Trazado 159928" d="M102.768,63.742a20.265,20.265,0,1,0,5.935,14.33A20.133,20.133,0,0,0,102.768,63.742ZM88.438,96.028a17.969,17.969,0,0,1-14.523-7.395L79.159,83.2a4.106,4.106,0,0,0,5.328-1.359l9.246,2.9c0,.027,0,.053,0,.08a4.113,4.113,0,1,0,7.741-1.934l4.923-4.814A17.958,17.958,0,0,1,88.438,96.028Zm12.7-30.655a17.823,17.823,0,0,1,5.013,9.711l-6.29,6.151a4.106,4.106,0,0,0-5.433,1.3l-9.246-2.9c0-.027,0-.053,0-.08A4.113,4.113,0,1,0,77.5,81.594l-4.851,5.029a17.957,17.957,0,0,1,28.488-21.249ZM99.649,84.82a1.8,1.8,0,1,1-1.8-1.8A1.807,1.807,0,0,1,99.649,84.82ZM82.873,79.556a1.8,1.8,0,1,1-1.8-1.8A1.807,1.807,0,0,1,82.873,79.556Z" transform="translate(-57.529 -41.832)"/>
    <path id="Trazado_159929" data-name="Trazado 159929" d="M147.023,90.831l.759-2.18a15.636,15.636,0,0,0-15.368,2.94l1.514,1.742A13.322,13.322,0,0,1,147.023,90.831Z" transform="translate(-111.724 -67.125)"/>
    <path id="Trazado_159930" data-name="Trazado 159930" d="M245.292,103.781a15.55,15.55,0,0,0-2.047-1.489l-1.2,1.971a13.259,13.259,0,0,1,1.742,1.268Z" transform="translate(-204.225 -79.367)"/>
    <path id="Trazado_159931" data-name="Trazado 159931" d="M161.456,266.357,160.6,268.5a15.583,15.583,0,0,0,5.8,1.122,15.744,15.744,0,0,0,3.248-.34l-.476-2.258A13.305,13.305,0,0,1,161.456,266.357Z" transform="translate(-135.505 -217.797)"/>
    <path id="Trazado_159932" data-name="Trazado 159932" d="M59.818,54.78l-1.676,1.676-4.157-4.444A28.039,28.039,0,0,0,57.537,27.76l3.3-3.225a4.11,4.11,0,0,0,5.611-5.487l7.081-6.924V15.7h2.308V8.227H68.36v2.308h3.49l-6.987,6.832a4.11,4.11,0,0,0-5.671,5.546l-2.528,2.472a27.951,27.951,0,1,0-48.7,26.821L6.022,54.22a4.119,4.119,0,1,0,1.661,1.6l1.7-1.76q.83,1,1.765,1.94a28,28,0,0,0,35.474,3.355l4.167,4.454-1.733,1.733L69.235,85.656,80,74.891Zm1.161-33.866a1.8,1.8,0,1,1,1.8,1.8A1.807,1.807,0,0,1,60.979,20.913ZM5.917,57.861a1.8,1.8,0,1,1-1.8-1.8A1.807,1.807,0,0,1,5.917,57.861Zm6.86-3.49a25.643,25.643,0,1,1,36.264,0A25.672,25.672,0,0,1,12.777,54.371Zm35.707,3.6a28.117,28.117,0,0,0,4.1-4.083l3.927,4.2-4.091,4.091ZM69.232,82.395,52.32,65.542l7.5-7.5L76.733,74.894Z" transform="translate(0 0)"/>
    <path id="Trazado_159933" data-name="Trazado 159933" d="M361.709,351.78l1.632,1.632,1.67-1.67,6.37,6.37,1.632-1.632-8-8Z" transform="translate(-305.192 -287.087)"/>
    <rect id="Rectángulo_40361" data-name="Rectángulo 40361" width="2.308" height="2.419" transform="translate(71.512 73.078) rotate(135)"/>
    <rect id="Rectángulo_40362" data-name="Rectángulo 40362" width="2.308" height="2.515" transform="translate(12.504 65.358)"/>
    <rect id="Rectángulo_40363" data-name="Rectángulo 40363" width="2.308" height="2.515" transform="translate(12.504 79.452)"/>
    <rect id="Rectángulo_40364" data-name="Rectángulo 40364" width="2.308" height="2.514" transform="translate(31.513 70.208)"/>
    <rect id="Rectángulo_40365" data-name="Rectángulo 40365" width="2.308" height="2.515" transform="translate(64.588 49.451)"/>
    <rect id="Rectángulo_40366" data-name="Rectángulo 40366" width="2.308" height="2.515" transform="translate(67.207 29.424)"/>
    <rect id="Rectángulo_40367" data-name="Rectángulo 40367" width="2.308" height="2.515" transform="translate(74.856 40.028)"/>
  </g>
</svg>
