<svg xmlns="http://www.w3.org/2000/svg" width="110" height="110.001" viewBox="0 0 110 110.001">
  <g id="Grupo_115738" data-name="Grupo 115738" transform="translate(-543 -8958)">
    <rect id="Rectángulo_40370" data-name="Rectángulo 40370" width="110" height="110" transform="translate(543 8958)" fill="none"/>
    <g id="empleado" transform="translate(558 8958)">
      <path id="Trazado_159935" data-name="Trazado 159935" d="M149.385,323.722a9.485,9.485,0,0,0-6.3-4.773l-12.28-4.265-27.65.02c-14.011,4.844-14.894,4.758-16.945,6.786a8.993,8.993,0,0,0-2.5,4.739c-4.883,24.526-4.9,23.91-4.736,25.387.46,4.277,4.86,3.831,4.979,3.883H150c3.337,0,4.948-1.675,5.014-4.427C155.035,350.267,150.451,325.814,149.385,323.722Z" transform="translate(-77.314 -247.076)" fill="#feca2e"/>
      <path id="Trazado_159936" data-name="Trazado 159936" d="M84.414,363.521c.974-5.378,4.673-25.835,4.712-26.021a8.957,8.957,0,0,1,3.261-5.357l-1.488.515-1.21.357a9.078,9.078,0,0,0-5.952,6.923c-5.106,25.647-4.75,23.632-4.771,24.491-.124,5.187,4.917,4.736,5.014,4.778h5.372C85.561,369.205,83.924,366.988,84.414,363.521Z" transform="translate(-77.339 -260.783)" fill="#d9ac28"/>
      <path id="Trazado_159937" data-name="Trazado 159937" d="M214.468,273.526v5.468l6.779,11.658h4.3l6.773-11.658v-5.787A18.921,18.921,0,0,1,214.468,273.526Z" transform="translate(-183.73 -214.509)" fill="#dd9a5e"/>
      <path id="Trazado_159938" data-name="Trazado 159938" d="M180.01,16.067C166.162-1.008,134.818,8.228,134.58,33h0V41.9h51.575V28.352C186.153,18.367,180.01,16.067,180.01,16.067Z" transform="translate(-121.004 -5.768)" fill="#727997"/>
      <path id="Trazado_159939" data-name="Trazado 159939" d="M140.8,33.176h0A25.772,25.772,0,0,1,163.7,7.748,25.87,25.87,0,0,0,134.58,33.176h0V42.07H140.8C140.8,38,140.8,35.069,140.8,33.176Z" transform="translate(-121.004 -5.942)" fill="#575c73"/>
      <g id="Grupo_115728" data-name="Grupo 115728" transform="translate(12.971 33.808)">
        <path id="Trazado_159940" data-name="Trazado 159940" d="M138.734,157.687c-3.2-1.139-6.961.81-6.961,4.118s3.757,5.26,6.961,4.118v-8.237Z" transform="translate(-131.773 -157.36)" fill="#dd9a5e"/>
        <path id="Trazado_159941" data-name="Trazado 159941" d="M345.043,157.687c3.2-1.139,6.961.81,6.961,4.118s-3.757,5.26-6.961,4.118Z" transform="translate(-299.223 -157.36)" fill="#dd9a5e"/>
      </g>
      <g id="Grupo_115729" data-name="Grupo 115729" transform="translate(12.968 36.319)">
        <path id="Trazado_159942" data-name="Trazado 159942" d="M132.256,169.047c-1.568,2.9.762,6.366,4.438,6.366a6.732,6.732,0,0,0,2.03-.314v-3.868A5.357,5.357,0,0,1,132.256,169.047Z" transform="translate(-131.759 -169.047)" fill="#d18c54"/>
        <path id="Trazado_159943" data-name="Trazado 159943" d="M345.043,171.231V175.1c4.3,1.531,8.458-2.37,6.467-6.052A5.357,5.357,0,0,1,345.043,171.231Z" transform="translate(-299.22 -169.047)" fill="#d18c54"/>
      </g>
      <path id="Trazado_159944" data-name="Trazado 159944" d="M166.313,98.737a2.639,2.639,0,0,0-3.492,2.495c0,11.387-1.255,18.221,5.308,25.327A19.65,19.65,0,0,0,202.046,114.7c.111-1.4.064-15.258.064-15.225a8.611,8.611,0,0,0-11.4-8.441C182.413,93.52,178.986,103.042,166.313,98.737Z" transform="translate(-143.104 -71.132)" fill="#edae6b"/>
      <path id="Trazado_159945" data-name="Trazado 159945" d="M168.425,143.217c-.034-.848-.012-.215-.018-14.7-.6-.151-1.229-.334-1.881-.555a2.639,2.639,0,0,0-3.492,2.495c.007,12.734-.5,15.484,2.032,20.609a19.647,19.647,0,0,0,20.3,10.747A19.657,19.657,0,0,1,168.425,143.217Z" transform="translate(-143.318 -100.36)" fill="#dd9a5e"/>
      <path id="Trazado_159946" data-name="Trazado 159946" d="M219.84,276.486a18.711,18.711,0,0,1-5.372-1.794v5.468l1.018,1.751h0l5.76,9.907h4.3l.739-1.272h0l-5.618-9.621A7.955,7.955,0,0,1,219.84,276.486Z" transform="translate(-183.73 -215.676)" fill="#d18c54"/>
      <g id="Grupo_115730" data-name="Grupo 115730" transform="translate(25.84 64.246)">
        <path id="Trazado_159947" data-name="Trazado 159947" d="M277.7,302.4l-4.9-3.361-6.773,11.9L271,313.8a1.71,1.71,0,0,0,2.594-.772Z" transform="translate(-250.049 -299.038)" fill="#ededed"/>
        <path id="Trazado_159948" data-name="Trazado 159948" d="M191.672,302.418l4.9-3.381,6.773,11.9-5.062,2.924a1.63,1.63,0,0,1-2.471-.735Z" transform="translate(-191.672 -299.037)" fill="#ededed"/>
      </g>
      <path id="Trazado_159949" data-name="Trazado 159949" d="M248.971,392.943a1.612,1.612,0,1,0,2.751,1.141A1.614,1.614,0,0,0,248.971,392.943Z" transform="translate(-210.446 -308.152)"/>
      <path id="Trazado_159950" data-name="Trazado 159950" d="M250.5,417.487a1.612,1.612,0,1,0,.823,2.721A1.612,1.612,0,0,0,250.5,417.487Z" transform="translate(-210.521 -327.764)"/>
      <path id="Trazado_159951" data-name="Trazado 159951" d="M251.455,443.208a1.611,1.611,0,1,0-.445,2.235A1.612,1.612,0,0,0,251.455,443.208Z" transform="translate(-210.452 -347.427)"/>
      <path id="Trazado_159952" data-name="Trazado 159952" d="M248.593,469.957a1.611,1.611,0,1,0,3.066.3C251.64,470.155,249.172,468.51,248.593,469.957Z" transform="translate(-210.416 -368.524)"/>
      <path id="Trazado_159953" data-name="Trazado 159953" d="M294.6,419.089a1.612,1.612,0,0,0-1.612-1.612H285.18a1.612,1.612,0,0,0,0,3.224h7.808A1.612,1.612,0,0,0,294.6,419.089Z" transform="translate(-237.985 -327.784)"/>
      <path id="Trazado_159954" data-name="Trazado 159954" d="M341.561,412.281a1.611,1.611,0,0,0-1.266,1.9l1.737,8.726c.366,2.722-.824,3.805-3.348,3.805h-8.111V409.086a1.612,1.612,0,1,0-3.224,0v17.622h-6.493a1.612,1.612,0,1,0,0,3.224h17.828c4.782,0,7.162-3.091,6.534-7.522,0-.03-.009-.06-.015-.089l-1.747-8.773A1.611,1.611,0,0,0,341.561,412.281Z" transform="translate(-265.996 -319.93)"/>
      <path id="Trazado_159955" data-name="Trazado 159955" d="M78.039,110h40.7a1.612,1.612,0,0,0,0-3.224H89.374V89.157a1.612,1.612,0,1,0-3.224,0v17.622H78.039c-2.47,0-3.72-1.036-3.348-3.805,5.007-25.135,4.72-23.892,5.007-24.7a7.2,7.2,0,0,1,2.829-3.642c1.742-1.177,1.606-.605,13.77-5l3.582,9.255a3.239,3.239,0,0,0,3.03,2.073c1.664,0,2.3-1.082,5.334-3.092l.562,1.274a2.471,2.471,0,0,0,4.518,0l.562-1.274c2.944,1.945,3.6,3.046,5.3,3.046a3.319,3.319,0,0,0,3.106-2.127l3.545-9.173c15.552,5.4,12.006,4.071,12.506,4.314a8.41,8.41,0,0,1,1.671,1c2.894,2.334,2.642,4.283,4.22,11.942a1.612,1.612,0,1,0,3.161-.629c-1.4-7.022-1.456-12.639-8-15.366a15.5,15.5,0,0,0-1.728-.561l-12.039-4.182L121.6,63.365V60.25a21.256,21.256,0,0,0,10.3-15.994c4.922.228,8.317-4.473,6.267-8.565V22.552c0-9.5-5.168-12.808-6.747-13.6C126.126,2.646,118.156-.214,109.96.014c-.1.031-15.274-.266-23.2,14.161a1.612,1.612,0,1,0,2.825,1.552,23.807,23.807,0,0,1,3.535-4.861h0c10.04-10.784,27.813-9.713,36.029.417a1.612,1.612,0,0,0,.687.494c.051.019,5.1,2.009,5.1,10.776V32.723a7.078,7.078,0,0,0-2.92-.543V28.308a10.221,10.221,0,0,0-13.475-9.985c-8.88,2.664-11.569,11.748-23.416,7.724a4.267,4.267,0,0,0-3.849.57c-2.425,1.738-1.622,4.48-1.773,5.564a7.036,7.036,0,0,0-2.92.543V27.4a24.58,24.58,0,0,1,.541-5.1,1.612,1.612,0,1,0-3.164-.617c-.985,4.9-.436,6.5-.6,14a5.626,5.626,0,0,0-.6,2.529,6.343,6.343,0,0,0,6.869,6.036,21.276,21.276,0,0,0,10.9,16.341v2.775L96.5,66.145,84.468,70.306a11.538,11.538,0,0,0-6.019,3.7,10.8,10.8,0,0,0-2.232,4.8c-4.567,23.8-5.022,23.436-4.758,25.874C71.631,106.28,72.617,110,78.039,110Zm33.024-33.73c-1.027-2.323.6.543-7.316-12.517v-1.72a21.419,21.419,0,0,0,12.531.461h0l.024-.007h0a20.9,20.9,0,0,0,2.07-.675v1.951c-6.94,11.462-6.548,10.795-6.616,10.936,0,.011-.012.024-.02.043Zm8.067,1.393-3.767-2.709,5.117-8.447,2.445,1.676C119.091,78.108,119.283,77.774,119.13,77.664Zm12.886-36.629V35.409a3.132,3.132,0,0,1,3.522,2.812C135.538,39.9,133.858,41.133,132.016,41.035ZM85.981,38.221A3.136,3.136,0,0,1,89.5,35.409v5.627A3.143,3.143,0,0,1,85.981,38.221Zm8.484,11.471c-2.411-5.075-1.591-8.522-1.738-15.589V30.067a1.026,1.026,0,0,1,1.362-.968c13.494,4.584,17.655-5.372,25.379-7.689a6.981,6.981,0,0,1,9.326,6.9c0,.031.029,13.75-.076,15.31a17.522,17.522,0,0,1-4.81,10.69A17.78,17.78,0,0,1,110.857,60h.012A18.075,18.075,0,0,1,94.465,49.691Zm7.181,16.823,5.118,8.441-3.858,2.775-.021-.012L99.2,68.2Z" transform="translate(-71.399 -0.001)"/>
    </g>
  </g>
</svg>
