<svg xmlns="http://www.w3.org/2000/svg" width="110" height="110" viewBox="0 0 110 110">
  <g id="Grupo_115739" data-name="Grupo 115739" transform="translate(-543 -9209)">
    <rect id="Rectángulo_40372" data-name="Rectángulo 40372" width="110" height="110" transform="translate(543 9209)" fill="none"/>
    <g id="juez" transform="translate(558 9209)">
      <path id="Trazado_159956" data-name="Trazado 159956" d="M128.616,48.016c-.17,3.2-.834,8.222-3.178,12.1-4.524,7.474,2.211,10.945.07,17.894l53.074.269c-1.9-6.884,4.761-10.26.382-17.752-2.3-3.942-2.881-9.026-2.995-12.223l.831-6.873c.036-8.627.424-11.554-.919-16.114C168.6.471,133.36,2.717,128.3,27.241c-.694,3.356-.5,4.832-.584,13.81l.9,6.966" transform="translate(-112.602 -6.074)" fill="#727997"/>
      <path id="Trazado_159957" data-name="Trazado 159957" d="M130.52,77.875c2.128-6.94-4.595-10.411-.074-17.881,2.344-3.874,3.008-8.9,3.178-12.1l-.9-6.966c.089-8.564-.778-14.769,3.981-22.117A24.56,24.56,0,0,1,155.019,7.681,24.483,24.483,0,0,0,134.5,15.212c-8.084,8.5-6.562,17.046-6.781,25.682l.9,6.966c-.17,3.2-.834,8.222-3.178,12.1-4.524,7.474,2.211,10.945.07,17.894Z" transform="translate(-112.602 -5.917)" fill="#575c73"/>
      <path id="Trazado_159958" data-name="Trazado 159958" d="M153.081,319.919c-4.883-25.546-4.546-24.352-5.212-25.807a9.342,9.342,0,0,0-6.386-5.087l-15.568-5.575a2.28,2.28,0,0,1-1.524-2.168l.038-4.9a19.626,19.626,0,0,1-17.817.169l-.035,4.59-5.127,3.336-2.864.96h-.006l-9.206,3.183-1.21.347a9.187,9.187,0,0,0-5.4,4.976c-.677,1.583-.457,1.572-4,18.34-1.374,6.833-1.667,7.324-1.514,8.849.427,4.272,4.821,3.861,4.939,3.913l65.92.505C151.913,325.584,153.541,323.362,153.081,319.919Z" transform="translate(-75.976 -217.115)" fill="#fed866"/>
      <path id="Trazado_159959" data-name="Trazado 159959" d="M82.753,361.264c5.056-26.491,4.859-26.593,5.941-28.472a8.838,8.838,0,0,1,3-3.088l-2.329.805-1.21.347a9.076,9.076,0,0,0-5.993,6.864c-5.251,25.354-4.97,23.648-4.952,24.757.075,4.817,4.842,4.412,4.97,4.457l5.457.042C83.819,366.947,82.242,364.684,82.753,361.264Z" transform="translate(-75.967 -258.999)" fill="#feca2e"/>
      <path id="Trazado_159960" data-name="Trazado 159960" d="M179.137,289.99a12.263,12.263,0,0,0-2.526-.967l-15.568-5.575a2.28,2.28,0,0,1-1.524-2.168l.038-4.9a19.62,19.62,0,0,1-17.817.169l-.035,4.59-5.127,3.336-2.864.96h-.006l-9.206,3.183-1.21.347a10.712,10.712,0,0,0-1.361.612h0c4.207,7.412,5.293,16.646,5.293,16.646-.014,1.8-.13,16.887-.145,18.894l45.78.351c.015-2.007.131-17.1.145-18.894a60.871,60.871,0,0,1,6.133-16.59Z" transform="translate(-111.103 -217.113)" fill="#fc4b52"/>
      <path id="Trazado_159961" data-name="Trazado 159961" d="M132.626,350.946c.049-6.434-3.211-16.413-5.8-21.229l-2.321.8-1.21.347a10.711,10.711,0,0,0-1.361.612c4.207,7.412,5.293,16.646,5.293,16.646-.014,1.8-.13,16.887-.145,18.894l5.423.042C132.515,365.447,132.614,352.485,132.626,350.946Z" transform="translate(-111.104 -259.01)" fill="#d94047"/>
      <path id="Trazado_159962" data-name="Trazado 159962" d="M221.736,332.386a22.431,22.431,0,0,1-6.384-1.011,2.9,2.9,0,1,1,1.618-5.56,16.613,16.613,0,0,0,5.043.783,16.006,16.006,0,0,0,4.848-.705h0c.236-.076.219-.066.574-.186a2.9,2.9,0,1,1,1.859,5.484,22.3,22.3,0,0,1-7.308,1.2Z" transform="translate(-182.762 -255.737)" fill="#ededed"/>
      <g id="Grupo_115731" data-name="Grupo 115731" transform="translate(30.39 69.817)">
        <path id="Trazado_159963" data-name="Trazado 159963" d="M284.015,326.064a2.888,2.888,0,0,0-2.085-.459C282.544,325.768,283.183,325.918,284.015,326.064Z" transform="translate(-267.181 -325.567)" fill="#dadada"/>
        <path id="Trazado_159964" data-name="Trazado 159964" d="M221.88,327.075a16.616,16.616,0,0,1-4.708-.721,2.9,2.9,0,1,0-2.041,5.429,22.011,22.011,0,0,0,3.472.823,22.482,22.482,0,0,0,3.379.26A4.416,4.416,0,0,1,221.88,327.075Z" transform="translate(-213.153 -326.034)" fill="#dadada"/>
      </g>
      <path id="Trazado_159965" data-name="Trazado 159965" d="M213.624,353.075l-3.275,32.337,18.759.144L226.331,353A22.815,22.815,0,0,1,213.624,353.075Z" transform="translate(-180.56 -277.297)" fill="#ededed"/>
      <path id="Trazado_159966" data-name="Trazado 159966" d="M219.668,354.237a23.132,23.132,0,0,1-5.877-.823l-.167-.048L210.349,385.7l9.077.07Z" transform="translate(-180.56 -277.586)" fill="#dadada"/>
      <path id="Trazado_159967" data-name="Trazado 159967" d="M216.849,281.7c-.013,1.761-.009,1.221-.023,2.983,1.411.01,4.567,1.946,10.8.23h0a4.57,4.57,0,0,1,1.518-.337v0l.021-2.78c.012-1.533,1.529-1.865,2.77-2.869h0l.042-5.538a19.645,19.645,0,0,1-17.817.169l-.04,5.233h0C215.35,279.809,216.861,280.164,216.849,281.7Z" transform="translate(-183.527 -214.756)" fill="#eab883"/>
      <path id="Trazado_159968" data-name="Trazado 159968" d="M219.516,275.93a19.3,19.3,0,0,1-5.344-1.757l-.04,5.233h0c1.223,1.022,2.735,1.377,2.723,2.91-.014,1.761-.009,1.221-.023,2.983a17.689,17.689,0,0,1,2.61.6Z" transform="translate(-183.53 -215.377)" fill="#dda97a"/>
      <path id="Trazado_159969" data-name="Trazado 159969" d="M203.83,119.2a3.237,3.237,0,0,0-3.584-3.238c-5.547.578-11.012-.669-14.255-5.152-.394-.544-.7-1.267-1.691-1.3-1.527.021-1.249,1.545-4.126,3.693a15.394,15.394,0,0,1-9.828,2.67c-1.161-.038-2.111-.162-2.09-.16a3.237,3.237,0,0,0-3.633,3.183l-.008,1.023h0c-.057,7.444-.322,9.589.608,13.071,5.764,21.528,38.367,18.281,38.545-4.923.01-1.319.044-5.782.06-7.847h0Z" transform="translate(-144.571 -86.026)" fill="#f7cf9c"/>
      <path id="Trazado_159970" data-name="Trazado 159970" d="M170.581,155.667c-.868-3.253-.657-10.2-.579-17.173-1-.048-1.765-.148-1.746-.146a3.237,3.237,0,0,0-3.633,3.183l-.008,1.023h0c-.057,7.444-.322,9.589.608,13.071,2.892,10.8,12.542,15.365,21.462,14.3A18.87,18.87,0,0,1,170.581,155.667Z" transform="translate(-144.57 -108.661)" fill="#dda97a"/>
      <g id="Grupo_115732" data-name="Grupo 115732" transform="translate(13.277 33.564)">
        <path id="Trazado_159971" data-name="Trazado 159971" d="M140.12,156.84c-3.22-1.175-6.74.938-6.764,4.059s3.464,5.288,6.7,4.162Z" transform="translate(-133.355 -156.511)" fill="#eab883"/>
        <path id="Trazado_159972" data-name="Trazado 159972" d="M347.523,158.344c3.237-1.126,6.725,1.041,6.7,4.162s-3.544,5.234-6.764,4.059Z" transform="translate(-301.546 -157.714)" fill="#eab883"/>
      </g>
      <g id="Grupo_115733" data-name="Grupo 115733" transform="translate(13.265 35.971)">
        <path id="Trazado_159973" data-name="Trazado 159973" d="M133.848,167.736c-2.043,3.584,1.939,7.611,6.162,6.143l.03-3.97A5.162,5.162,0,0,1,133.848,167.736Z" transform="translate(-133.296 -167.736)" fill="#dda97a"/>
        <path id="Trazado_159974" data-name="Trazado 159974" d="M347.49,171.66l-.03,3.97c4.194,1.531,8.246-2.428,6.256-6.048A5.162,5.162,0,0,1,347.49,171.66Z" transform="translate(-301.533 -169.186)" fill="#dda97a"/>
      </g>
      <path id="Trazado_159975" data-name="Trazado 159975" d="M148.255,90.976a1.609,1.609,0,1,0-3.155.628c2.182,11.158,2.384,11.316,2.253,12.537-.122,1.135-.616,2.439-3.37,2.439h-8.764V89.373a43.966,43.966,0,0,1,4.46-14.761c.2.147.252.186.273.2h0c2.732,2.3,2.627,4.158,3.68,9.422a1.609,1.609,0,1,0,3.155-.628c-.973-4.8-1.071-5.862-1.7-7.259a10.723,10.723,0,0,0-6.175-5.766c-1.035-5.533,4.9-9.365.258-17.163-1.984-3.335-2.615-7.708-2.811-10.509A5.724,5.724,0,0,0,137.085,34c-.007-8.722,1.036-16.914-7.058-25.715a26.154,26.154,0,0,0-37.3-.9A1.609,1.609,0,0,0,94.963,9.7a22.9,22.9,0,0,1,16.244-6.472,21.951,21.951,0,0,1,5.91.844c6.459,1.8,11.139,5.911,14.36,11.883,2.859,5.853,2.383,9.8,2.389,16.332a7.006,7.006,0,0,0-1.807-.16,4.847,4.847,0,0,0-5.328-3.915c-5.146.573-10.3-.55-13.148-4.9a3.163,3.163,0,0,0-5.3,0,10.668,10.668,0,0,1-2.065,2.329h0c-2.787,2.253-6.338,2.88-9.914,2.666-2.455-.426-3.893.14-4.971,1.1a4.839,4.839,0,0,0-1.526,2.71,7.011,7.011,0,0,0-1.806.16c.02-6.57-.515-10.954,2.738-16.991A1.609,1.609,0,0,0,87.9,13.778C83.48,22.012,85.156,28.558,84.782,34a5.734,5.734,0,0,0,.9,9.026c-.2,2.783-.842,7.094-2.8,10.39-4.653,7.823,1.3,11.609.261,17.162a10.7,10.7,0,0,0-6.895,8.078c-4.9,24.594-4.69,23.546-4.7,23.628-.623,4.407,1.713,7.508,6.522,7.508h65.922c4.344,0,6.706-2.511,6.612-6.417C150.558,101.9,150.441,102.266,148.255,90.976Zm-11.5-27.339a15.979,15.979,0,0,0-1.188,5.834c-15.5-5.409-13.772-4.6-14.032-5.381v-3.82a21.209,21.209,0,0,0,10.49-16.091,6.882,6.882,0,0,0,1.2-.048C134.46,57.3,139.862,54.689,136.755,63.637ZM110.613,75.043a20.451,20.451,0,0,1-5.341-.718h0l-.167-.047h0c-.367-.1-.187-.052-.63-.186a1.287,1.287,0,0,1,.783-2.452,18.383,18.383,0,0,0,9.007.487c2.461-.482,2.684-1.011,3.481-.624a1.287,1.287,0,0,1,.6,1.72,1.566,1.566,0,0,1-1.137.791A22.186,22.186,0,0,1,110.613,75.043ZM111,63.1h.088a20.986,20.986,0,0,0,5.359-.722h0l.025-.007h0c.14-.045.811-.207,1.849-.592v1.467c-.538.5-2.748,1.274-2.748,3.738v1.468a14.159,14.159,0,0,1-4.751.8,14.864,14.864,0,0,1-4.351-.605V66.988c0-2.475-2.215-3.239-2.748-3.738v-1.4A21.32,21.32,0,0,0,111,63.1Zm21.152-27.76a3.136,3.136,0,0,1,3.515,2.81c0,1.674-1.678,2.907-3.515,2.809V35.344ZM92.939,33.02a1.627,1.627,0,0,1,1.811-1.613c6.561.61,12.5-.8,16.185-6.264a13.687,13.687,0,0,0,6.452,5.209,20.79,20.79,0,0,0,9.731,1.055,1.627,1.627,0,0,1,1.811,1.613c.009,9.347.2,10.9-.761,14.078a18.013,18.013,0,0,1-17.125,12.789h0a17.683,17.683,0,0,1-5.484-.817,17.2,17.2,0,0,1-2.736-1.111h0a18.071,18.071,0,0,1-9.861-15.146C92.921,42,92.938,33.044,92.939,33.02Zm-3.221,2.324v5.619A3.137,3.137,0,0,1,86.2,38.154C86.2,36.48,87.881,35.247,89.718,35.344Zm-.9,8.807a6.887,6.887,0,0,0,1.028.027A21.255,21.255,0,0,0,100.5,60.367v2.865l-4.209,2.785c-4.734,1.623-5.431,1.909-9.815,3.45a15.977,15.977,0,0,0-1.189-5.832C82.185,54.7,87.577,57.3,88.813,44.15ZM78.061,106.58c-2.465,0-3.713-1.035-3.342-3.8,5.121-25.707,4.716-23.8,4.929-24.45a7.083,7.083,0,0,1,2.287-3.387A44.268,44.268,0,0,1,86.22,89.374V106.58H78.061Zm6.746-33.091a1.71,1.71,0,0,0,.516-.208c.234-.07,2.705-.952,9.359-3.308,4.362-1.525,1.8-.292,7.414-3.937.927.683,1.155.678,1.155.951v1.678a4.5,4.5,0,0,0-.3,8.271l-2.773,29.643H89.437V89.294A46.191,46.191,0,0,0,84.807,73.489Zm27.521,33.091V90.659a1.609,1.609,0,1,0-3.217,0V106.58h-5.7l2.69-28.76a24.957,24.957,0,0,0,3.012.39v4.942a1.609,1.609,0,0,0,3.217,0V78.208a23.94,23.94,0,0,0,3.622-.515l2.687,28.887Zm9.54,0-2.776-29.836a4.507,4.507,0,0,0-.3-8.288c.041-1.376-.1-1.561.132-1.719l.273-.187c1.146,1.408,2.35,1.274,6.225,2.746.021.008,12.093,4.274,11.322,3.99A46.358,46.358,0,0,0,132,89.294V106.58Z" transform="translate(-71.441 0)"/>
    </g>
  </g>
</svg>
