<svg xmlns="http://www.w3.org/2000/svg" width="505" height="380" viewBox="0 0 505 380">
  <g id="Grupo_115778" data-name="Grupo 115778" transform="translate(-285 -1688)">
    <g id="Rectángulo_40176" data-name="Rectángulo 40176" transform="translate(285 1688)" fill="#f4f9f9" stroke="#cae3e6" stroke-width="3">
      <rect width="505" height="380" rx="17" stroke="none"/>
      <rect x="1.5" y="1.5" width="502" height="377" rx="15.5" fill="none"/>
    </g>
    <path id="Trazado_158508" data-name="Trazado 158508" d="M9.893-6.035H4.5v3.4h6.367V0H1.074V-14.219h9.814v2.646H4.5v3H9.893ZM15.586,0h-3.3V-15h3.3Zm7.139.2a5.432,5.432,0,0,1-3.936-1.45,5.008,5.008,0,0,1-1.5-3.774V-5.3a6.489,6.489,0,0,1,.6-2.861,4.395,4.395,0,0,1,1.753-1.919,5.292,5.292,0,0,1,2.734-.679A4.574,4.574,0,0,1,25.889-9.38a5.43,5.43,0,0,1,1.289,3.853v1.279H20.635a2.372,2.372,0,0,0,.771,1.4,2.3,2.3,0,0,0,1.543.508,2.958,2.958,0,0,0,2.441-1.094l1.5,1.777A4.2,4.2,0,0,1,25.151-.308,5.891,5.891,0,0,1,22.725.2Zm-.371-8.418q-1.445,0-1.719,1.914h3.32v-.254a1.63,1.63,0,0,0-.4-1.226A1.593,1.593,0,0,0,22.354-8.223Zm9.258-2.344.107,1.24a3.633,3.633,0,0,1,3.018-1.436A2.675,2.675,0,0,1,37.441-9.17a3.516,3.516,0,0,1,3.105-1.592q3.213,0,3.3,3.887V0h-3.3V-6.67a2.014,2.014,0,0,0-.273-1.182,1.164,1.164,0,0,0-1-.371,1.559,1.559,0,0,0-1.455.869l.01.137V0h-3.3V-6.65a2.117,2.117,0,0,0-.264-1.2,1.161,1.161,0,0,0-1.006-.371,1.578,1.578,0,0,0-1.445.869V0H28.525V-10.566ZM50.84.2A5.432,5.432,0,0,1,46.9-1.255a5.008,5.008,0,0,1-1.5-3.774V-5.3A6.489,6.489,0,0,1,46-8.164a4.395,4.395,0,0,1,1.753-1.919,5.292,5.292,0,0,1,2.734-.679A4.574,4.574,0,0,1,54-9.38a5.43,5.43,0,0,1,1.289,3.853v1.279H48.75a2.372,2.372,0,0,0,.771,1.4,2.3,2.3,0,0,0,1.543.508,2.958,2.958,0,0,0,2.441-1.094l1.5,1.777A4.2,4.2,0,0,1,53.267-.308,5.891,5.891,0,0,1,50.84.2Zm-.371-8.418q-1.445,0-1.719,1.914h3.32v-.254a1.63,1.63,0,0,0-.4-1.226A1.593,1.593,0,0,0,50.469-8.223Zm9.17-2.344.107,1.24a3.583,3.583,0,0,1,3.018-1.436,3.015,3.015,0,0,1,2.466.986,4.7,4.7,0,0,1,.845,2.969V0h-3.3V-6.67a1.783,1.783,0,0,0-.322-1.177,1.491,1.491,0,0,0-1.172-.376,1.569,1.569,0,0,0-1.436.762V0H56.553V-10.566Zm12.09-2.627v2.627h1.738v2.285H71.729v4.834a1.234,1.234,0,0,0,.215.83,1.152,1.152,0,0,0,.85.234,4.828,4.828,0,0,0,.82-.059V-.088A6.074,6.074,0,0,1,71.758.2a3.448,3.448,0,0,1-2.51-.8,3.282,3.282,0,0,1-.811-2.432V-8.281H67.09v-2.285h1.348v-2.627Zm2.324,7.813A6.236,6.236,0,0,1,74.668-8.2a4.4,4.4,0,0,1,1.768-1.9,5.323,5.323,0,0,1,2.705-.664,4.858,4.858,0,0,1,3.74,1.47,5.64,5.64,0,0,1,1.367,4v.117a5.472,5.472,0,0,1-1.372,3.921A4.871,4.871,0,0,1,79.16.2a4.927,4.927,0,0,1-3.623-1.353,5.29,5.29,0,0,1-1.475-3.667Zm3.291.205A3.932,3.932,0,0,0,77.8-3.027a1.529,1.529,0,0,0,1.357.684q1.758,0,1.8-2.705v-.332q0-2.842-1.816-2.842-1.65,0-1.787,2.451ZM91.23-2.969a.76.76,0,0,0-.439-.674,6.685,6.685,0,0,0-1.67-.527,7.615,7.615,0,0,1-2.031-.718,3.4,3.4,0,0,1-1.221-1.079,2.577,2.577,0,0,1-.42-1.455,2.92,2.92,0,0,1,1.2-2.4,4.948,4.948,0,0,1,3.145-.942,5.482,5.482,0,0,1,3.359.947,2.962,2.962,0,0,1,1.27,2.49h-3.3q0-1.27-1.338-1.27a1.326,1.326,0,0,0-.869.288.892.892,0,0,0-.352.718.819.819,0,0,0,.43.713,4.06,4.06,0,0,0,1.372.449,11.857,11.857,0,0,1,1.655.42A3.007,3.007,0,0,1,94.4-3.066,2.767,2.767,0,0,1,93.12-.713,5.631,5.631,0,0,1,89.795.2a5.747,5.747,0,0,1-2.422-.488,4.05,4.05,0,0,1-1.66-1.328,3.007,3.007,0,0,1-.6-1.768h3.076a1.272,1.272,0,0,0,.488,1.069,2.009,2.009,0,0,0,1.2.337,1.58,1.58,0,0,0,1.011-.273A.875.875,0,0,0,91.23-2.969Zm9.277-2.393a6.455,6.455,0,0,1,1.084-3.955,3.568,3.568,0,0,1,3.027-1.445A3.035,3.035,0,0,1,107-9.648V-15h3.3V0h-2.959l-.166-1.133A3.116,3.116,0,0,1,104.6.2a3.562,3.562,0,0,1-2.988-1.445A6.659,6.659,0,0,1,100.508-5.361Zm3.291.205q0,2.813,1.641,2.813A1.62,1.62,0,0,0,107-3.262V-7.285a1.576,1.576,0,0,0-1.543-.937q-1.523,0-1.65,2.461ZM117.285.2a5.432,5.432,0,0,1-3.936-1.45,5.008,5.008,0,0,1-1.5-3.774V-5.3a6.489,6.489,0,0,1,.6-2.861,4.395,4.395,0,0,1,1.753-1.919,5.292,5.292,0,0,1,2.734-.679,4.574,4.574,0,0,1,3.516,1.382,5.43,5.43,0,0,1,1.289,3.853v1.279H115.2a2.372,2.372,0,0,0,.771,1.4,2.3,2.3,0,0,0,1.543.508,2.958,2.958,0,0,0,2.441-1.094l1.5,1.777a4.2,4.2,0,0,1-1.743,1.353A5.891,5.891,0,0,1,117.285.2Zm-.371-8.418q-1.445,0-1.719,1.914h3.32v-.254a1.63,1.63,0,0,0-.4-1.226A1.593,1.593,0,0,0,116.914-8.223ZM126.533,0h-3.3V-15h3.3ZM136.65-10.566l.107,1.24a3.633,3.633,0,0,1,3.018-1.436A2.675,2.675,0,0,1,142.48-9.17a3.516,3.516,0,0,1,3.105-1.592q3.213,0,3.3,3.887V0h-3.3V-6.67a2.014,2.014,0,0,0-.273-1.182,1.164,1.164,0,0,0-1-.371,1.559,1.559,0,0,0-1.455.869l.01.137V0h-3.3V-6.65a2.117,2.117,0,0,0-.264-1.2,1.161,1.161,0,0,0-1.006-.371,1.578,1.578,0,0,0-1.445.869V0h-3.291V-10.566ZM155.879.2a5.432,5.432,0,0,1-3.936-1.45,5.008,5.008,0,0,1-1.5-3.774V-5.3a6.489,6.489,0,0,1,.6-2.861,4.395,4.395,0,0,1,1.753-1.919,5.292,5.292,0,0,1,2.734-.679,4.574,4.574,0,0,1,3.516,1.382,5.43,5.43,0,0,1,1.289,3.853v1.279h-6.543a2.372,2.372,0,0,0,.771,1.4,2.3,2.3,0,0,0,1.543.508,2.958,2.958,0,0,0,2.441-1.094l1.5,1.777a4.2,4.2,0,0,1-1.743,1.353A5.891,5.891,0,0,1,155.879.2Zm-.371-8.418q-1.445,0-1.719,1.914h3.32v-.254a1.63,1.63,0,0,0-.4-1.226A1.593,1.593,0,0,0,155.508-8.223Zm12.539.635-1.084-.078a1.947,1.947,0,0,0-1.992.977V0H161.68V-10.566h3.086l.107,1.357a2.548,2.548,0,0,1,2.314-1.553,3.209,3.209,0,0,1,.918.117Zm5.469,5.244a1.464,1.464,0,0,0,1.074-.376,1.379,1.379,0,0,0,.371-1.05h3.086A3.653,3.653,0,0,1,176.8-.918,4.631,4.631,0,0,1,173.594.2a4.689,4.689,0,0,1-3.633-1.445,5.7,5.7,0,0,1-1.328-4v-.137a6.436,6.436,0,0,1,.591-2.827,4.3,4.3,0,0,1,1.7-1.885,5.081,5.081,0,0,1,2.637-.659,4.573,4.573,0,0,1,3.271,1.143,4.053,4.053,0,0,1,1.211,3.1h-3.086a1.807,1.807,0,0,0-.4-1.26,1.382,1.382,0,0,0-1.074-.439q-1.279,0-1.494,1.631a11.507,11.507,0,0,0-.068,1.426,4.52,4.52,0,0,0,.381,2.207A1.319,1.319,0,0,0,173.516-2.344ZM185.391,0a3.716,3.716,0,0,1-.312-.947A3.06,3.06,0,0,1,182.539.2,3.749,3.749,0,0,1,180-.708a2.875,2.875,0,0,1-1.045-2.271,2.955,2.955,0,0,1,1.27-2.6,6.468,6.468,0,0,1,3.691-.879h1.016v-.559q0-1.462-1.26-1.462A1.03,1.03,0,0,0,182.5-7.319h-3.291a2.95,2.95,0,0,1,1.3-2.487,5.479,5.479,0,0,1,3.325-.956,4.8,4.8,0,0,1,3.193.986,3.429,3.429,0,0,1,1.2,2.705v4.678a4.79,4.79,0,0,0,.449,2.227V0ZM183.33-2.148a1.836,1.836,0,0,0,1.021-.264,1.652,1.652,0,0,0,.581-.6V-4.7h-.957q-1.719,0-1.719,1.543a.942.942,0,0,0,.3.728A1.1,1.1,0,0,0,183.33-2.148Zm6.309-3.213a6.455,6.455,0,0,1,1.084-3.955,3.568,3.568,0,0,1,3.027-1.445,3.035,3.035,0,0,1,2.383,1.113V-15h3.3V0h-2.959l-.166-1.133A3.116,3.116,0,0,1,193.73.2a3.562,3.562,0,0,1-2.988-1.445A6.659,6.659,0,0,1,189.639-5.361Zm3.291.205q0,2.813,1.641,2.813a1.62,1.62,0,0,0,1.563-.918V-7.285a1.576,1.576,0,0,0-1.543-.937q-1.523,0-1.65,2.461Zm7.959-.225A6.236,6.236,0,0,1,201.5-8.2a4.4,4.4,0,0,1,1.768-1.9,5.323,5.323,0,0,1,2.705-.664,4.858,4.858,0,0,1,3.74,1.47,5.64,5.64,0,0,1,1.367,4v.117a5.472,5.472,0,0,1-1.372,3.921A4.871,4.871,0,0,1,206,.2a4.927,4.927,0,0,1-3.623-1.353A5.29,5.29,0,0,1,200.9-4.824Zm3.291.205a3.932,3.932,0,0,0,.459,2.148A1.529,1.529,0,0,0,206-2.344q1.758,0,1.8-2.705v-.332q0-2.842-1.816-2.842-1.65,0-1.787,2.451Z" transform="translate(432 1731)" fill="#12263f"/>
    <g id="Grupo_109222" data-name="Grupo 109222" transform="translate(397.533 1742)">
      <rect id="BG" width="279.5" height="5" transform="translate(0.467 1.972)" fill="#cae3e6"/>
      <path id="Trazado_1367" data-name="Trazado 1367" d="M0,0,9.784,9.784H0Z" transform="translate(133.467 6.918) rotate(-45)" fill="#cae3e6"/>
    </g>
    <g id="Rectángulo_40178" data-name="Rectángulo 40178" transform="translate(302 1767)" fill="#feecec" stroke="#fc4b52" stroke-width="2">
      <rect width="223" height="59" rx="10" stroke="none"/>
      <rect x="1" y="1" width="221" height="57" rx="9" fill="none"/>
    </g>
    <g id="Rectángulo_40181" data-name="Rectángulo 40181" transform="translate(302 1841)" fill="#feecec" stroke="#fc4b52" stroke-width="2">
      <rect width="223" height="59" rx="10" stroke="none"/>
      <rect x="1" y="1" width="221" height="57" rx="9" fill="none"/>
    </g>
    <g id="Rectángulo_40184" data-name="Rectángulo 40184" transform="translate(302 1915)" fill="#feecec" stroke="#fc4b52" stroke-width="2">
      <rect width="223" height="59" rx="10" stroke="none"/>
      <rect x="1" y="1" width="221" height="57" rx="9" fill="none"/>
    </g>
    <g id="Rectángulo_40180" data-name="Rectángulo 40180" transform="translate(551 1767)" fill="#feecec" stroke="#fc4b52" stroke-width="2">
      <rect width="223" height="59" rx="10" stroke="none"/>
      <rect x="1" y="1" width="221" height="57" rx="9" fill="none"/>
    </g>
    <g id="Rectángulo_40182" data-name="Rectángulo 40182" transform="translate(551 1841)" fill="#feecec" stroke="#fc4b52" stroke-width="2">
      <rect width="223" height="59" rx="10" stroke="none"/>
      <rect x="1" y="1" width="221" height="57" rx="9" fill="none"/>
    </g>
    <g id="Rectángulo_40183" data-name="Rectángulo 40183" transform="translate(551 1915)" fill="#feecec" stroke="#fc4b52" stroke-width="2">
      <rect width="223" height="59" rx="10" stroke="none"/>
      <rect x="1" y="1" width="221" height="57" rx="9" fill="none"/>
    </g>
    <g id="Rectángulo_40185" data-name="Rectángulo 40185" transform="translate(426 1989)" fill="#feecec" stroke="#fc4b52" stroke-width="2">
      <rect width="223" height="59" rx="10" stroke="none"/>
      <rect x="1" y="1" width="221" height="57" rx="9" fill="none"/>
    </g>
    <path id="Trazado_158507" data-name="Trazado 158507" d="M-42.242-3.789A4.025,4.025,0,0,1-43.6-.9,4.76,4.76,0,0,1-46.82.156a4.28,4.28,0,0,1-3.441-1.473,6.038,6.038,0,0,1-1.254-4.043v-.7a6.819,6.819,0,0,1,.578-2.891,4.332,4.332,0,0,1,1.652-1.918,4.629,4.629,0,0,1,2.5-.668,4.637,4.637,0,0,1,3.172,1.055,4.326,4.326,0,0,1,1.391,2.961H-44.57a2.376,2.376,0,0,0-.613-1.6,2.271,2.271,0,0,0-1.605-.5,1.991,1.991,0,0,0-1.754.84,4.707,4.707,0,0,0-.6,2.605V-5.3a5.038,5.038,0,0,0,.559,2.7,1.954,1.954,0,0,0,1.762.852,2.314,2.314,0,0,0,1.621-.5,2.241,2.241,0,0,0,.613-1.535ZM-41.2-4.3a5.013,5.013,0,0,1,.484-2.242A3.546,3.546,0,0,1-39.324-8.07a4.069,4.069,0,0,1,2.113-.539,3.849,3.849,0,0,1,2.793,1.047,4.2,4.2,0,0,1,1.207,2.844l.016.578A4.418,4.418,0,0,1-34.281-1.02,3.775,3.775,0,0,1-37.2.156a3.793,3.793,0,0,1-2.918-1.172A4.5,4.5,0,0,1-41.2-4.2Zm2.258.16A3.16,3.16,0,0,0-38.492-2.3a1.5,1.5,0,0,0,1.3.638,1.5,1.5,0,0,0,1.281-.63,3.457,3.457,0,0,0,.461-2.015,3.128,3.128,0,0,0-.461-1.831,1.5,1.5,0,0,0-1.3-.649,1.474,1.474,0,0,0-1.281.646A3.516,3.516,0,0,0-38.945-4.144Zm9.219-4.309.07.977a2.951,2.951,0,0,1,2.43-1.133,2.453,2.453,0,0,1,2,.789,3.682,3.682,0,0,1,.672,2.359V0h-2.258V-5.406a1.465,1.465,0,0,0-.312-1.043,1.4,1.4,0,0,0-1.039-.324,1.553,1.553,0,0,0-1.43.813V0h-2.258V-8.453Zm11.461,6.117a.727.727,0,0,0-.41-.652,4.659,4.659,0,0,0-1.316-.426q-3.016-.633-3.016-2.562a2.323,2.323,0,0,1,.934-1.879,3.766,3.766,0,0,1,2.441-.754,4.053,4.053,0,0,1,2.574.758,2.388,2.388,0,0,1,.965,1.969h-2.258a1.092,1.092,0,0,0-.312-.8A1.322,1.322,0,0,0-19.641-7a1.351,1.351,0,0,0-.883.258.814.814,0,0,0-.312.656.7.7,0,0,0,.355.605,3.657,3.657,0,0,0,1.2.4,9.8,9.8,0,0,1,1.422.379A2.336,2.336,0,0,1-16.07-2.43a2.2,2.2,0,0,1-.992,1.871,4.28,4.28,0,0,1-2.562.715,4.47,4.47,0,0,1-1.887-.379A3.166,3.166,0,0,1-22.8-1.262a2.414,2.414,0,0,1-.469-1.426h2.141a1.179,1.179,0,0,0,.445.922,1.766,1.766,0,0,0,1.109.32,1.635,1.635,0,0,0,.98-.246A.766.766,0,0,0-18.266-2.336ZM-9.555-.859A2.831,2.831,0,0,1-11.867.156a2.67,2.67,0,0,1-2.074-.781,3.335,3.335,0,0,1-.73-2.289V-8.453h2.258v5.467q0,1.322,1.2,1.322a1.63,1.63,0,0,0,1.578-.8V-8.453h2.266V0H-9.492Zm6.008-7.594.07.945a2.971,2.971,0,0,1,2.43-1.1A2.255,2.255,0,0,1,1.2-7.32,2.9,2.9,0,0,1,3.734-8.609a2.521,2.521,0,0,1,2.047.8A3.681,3.681,0,0,1,6.453-5.4V0H4.188V-5.391a1.61,1.61,0,0,0-.281-1.051,1.246,1.246,0,0,0-.992-.332A1.409,1.409,0,0,0,1.508-5.8L1.516,0H-.742V-5.383a1.59,1.59,0,0,0-.289-1.062,1.259,1.259,0,0,0-.984-.328,1.463,1.463,0,0,0-1.391.8V0H-5.664V-8.453ZM10.57,0H8.3V-8.453H10.57Zm-2.4-10.641a1.112,1.112,0,0,1,.34-.836,1.277,1.277,0,0,1,.926-.328,1.28,1.28,0,0,1,.922.328,1.105,1.105,0,0,1,.344.836,1.108,1.108,0,0,1-.348.844,1.283,1.283,0,0,1-.918.328A1.283,1.283,0,0,1,8.52-9.8,1.108,1.108,0,0,1,8.172-10.641Zm3.906,6.352a5.094,5.094,0,0,1,.887-3.148,2.877,2.877,0,0,1,2.426-1.172,2.589,2.589,0,0,1,2.039.922V-12H19.7V0H17.656l-.109-.9A2.657,2.657,0,0,1,15.375.156,2.869,2.869,0,0,1,12.98-1.02,5.258,5.258,0,0,1,12.078-4.289Zm2.258.168A3.337,3.337,0,0,0,14.75-2.3a1.349,1.349,0,0,0,1.2.634,1.511,1.511,0,0,0,1.477-.884V-5.889a1.489,1.489,0,0,0-1.461-.884Q14.336-6.773,14.336-4.121ZM21.094-4.3a5.013,5.013,0,0,1,.484-2.242A3.546,3.546,0,0,1,22.973-8.07a4.069,4.069,0,0,1,2.113-.539,3.849,3.849,0,0,1,2.793,1.047,4.2,4.2,0,0,1,1.207,2.844l.016.578A4.418,4.418,0,0,1,28.016-1.02,3.775,3.775,0,0,1,25.1.156a3.793,3.793,0,0,1-2.918-1.172A4.5,4.5,0,0,1,21.094-4.2Zm2.258.16A3.16,3.16,0,0,0,23.8-2.3a1.5,1.5,0,0,0,1.3.638,1.5,1.5,0,0,0,1.281-.63,3.457,3.457,0,0,0,.461-2.015,3.128,3.128,0,0,0-.461-1.831,1.5,1.5,0,0,0-1.3-.649,1.474,1.474,0,0,0-1.281.646A3.516,3.516,0,0,0,23.352-4.144ZM35.242-6.336A6.134,6.134,0,0,0,34.43-6.4a1.654,1.654,0,0,0-1.68.867V0H30.492V-8.453h2.133l.063,1.008A2.092,2.092,0,0,1,34.57-8.609a2.366,2.366,0,0,1,.7.1ZM40.07.156A4.15,4.15,0,0,1,37.043-.984a4.054,4.054,0,0,1-1.168-3.039v-.219a5.106,5.106,0,0,1,.492-2.277,3.612,3.612,0,0,1,1.395-1.547,3.914,3.914,0,0,1,2.059-.543,3.508,3.508,0,0,1,2.73,1.094,4.444,4.444,0,0,1,1,3.1v.922H38.164a2.1,2.1,0,0,0,.66,1.328,2,2,0,0,0,1.395.5,2.437,2.437,0,0,0,2.039-.945l1.109,1.242A3.389,3.389,0,0,1,41.992-.246,4.511,4.511,0,0,1,40.07.156Zm-.258-6.945a1.411,1.411,0,0,0-1.09.455,2.357,2.357,0,0,0-.535,1.3h3.141v-.181a1.681,1.681,0,0,0-.406-1.165A1.456,1.456,0,0,0,39.813-6.789Zm9.594,4.453A.727.727,0,0,0,49-2.988a4.659,4.659,0,0,0-1.316-.426q-3.016-.633-3.016-2.562A2.323,2.323,0,0,1,45.6-7.855a3.766,3.766,0,0,1,2.441-.754,4.053,4.053,0,0,1,2.574.758,2.388,2.388,0,0,1,.965,1.969H49.32a1.092,1.092,0,0,0-.312-.8A1.322,1.322,0,0,0,48.031-7a1.351,1.351,0,0,0-.883.258.814.814,0,0,0-.312.656.7.7,0,0,0,.355.605,3.657,3.657,0,0,0,1.2.4,9.8,9.8,0,0,1,1.422.379A2.336,2.336,0,0,1,51.6-2.43a2.2,2.2,0,0,1-.992,1.871,4.28,4.28,0,0,1-2.562.715A4.47,4.47,0,0,1,46.16-.223a3.166,3.166,0,0,1-1.293-1.039A2.414,2.414,0,0,1,44.4-2.687h2.141a1.179,1.179,0,0,0,.445.922,1.766,1.766,0,0,0,1.109.32,1.635,1.635,0,0,0,.98-.246A.766.766,0,0,0,49.406-2.336Z" transform="translate(411 1802)" fill="#12263f"/>
    <path id="Trazado_158504" data-name="Trazado 158504" d="M-49.574,0V-11.375h3.5a5.315,5.315,0,0,1,2.684.676,4.712,4.712,0,0,1,1.848,1.922,5.928,5.928,0,0,1,.664,2.832v.523a5.945,5.945,0,0,1-.652,2.82,4.672,4.672,0,0,1-1.84,1.914A5.355,5.355,0,0,1-46.051,0Zm2.344-9.477v7.594H-46.1a2.545,2.545,0,0,0,2.1-.9,4.06,4.06,0,0,0,.742-2.57v-.6a4.124,4.124,0,0,0-.719-2.629,2.537,2.537,0,0,0-2.1-.895ZM-36.941,0h-2.266V-8.453h2.266Zm-2.4-10.641a1.112,1.112,0,0,1,.34-.836,1.277,1.277,0,0,1,.926-.328,1.28,1.28,0,0,1,.922.328,1.105,1.105,0,0,1,.344.836,1.108,1.108,0,0,1-.348.844,1.283,1.283,0,0,1-.918.328,1.283,1.283,0,0,1-.918-.328A1.108,1.108,0,0,1-39.34-10.641Zm8.836,8.3a.727.727,0,0,0-.41-.652,4.659,4.659,0,0,0-1.316-.426q-3.016-.633-3.016-2.562a2.323,2.323,0,0,1,.934-1.879,3.766,3.766,0,0,1,2.441-.754,4.053,4.053,0,0,1,2.574.758,2.388,2.388,0,0,1,.965,1.969H-30.59a1.092,1.092,0,0,0-.312-.8A1.322,1.322,0,0,0-31.879-7a1.351,1.351,0,0,0-.883.258.814.814,0,0,0-.312.656.7.7,0,0,0,.355.605,3.657,3.657,0,0,0,1.2.4A9.8,9.8,0,0,1-30.1-4.7,2.336,2.336,0,0,1-28.309-2.43,2.2,2.2,0,0,1-29.3-.559a4.28,4.28,0,0,1-2.562.715A4.47,4.47,0,0,1-33.75-.223a3.166,3.166,0,0,1-1.293-1.039,2.414,2.414,0,0,1-.469-1.426h2.141a1.179,1.179,0,0,0,.445.922,1.766,1.766,0,0,0,1.109.32,1.635,1.635,0,0,0,.98-.246A.766.766,0,0,0-30.5-2.336Zm6.352-8.2v2.078h1.445V-6.8h-1.445v4.219a1.007,1.007,0,0,0,.18.672.9.9,0,0,0,.688.2,3.6,3.6,0,0,0,.664-.055V-.047a4.648,4.648,0,0,1-1.367.2,2.156,2.156,0,0,1-2.422-2.4V-6.8h-1.234V-8.453h1.234v-2.078Zm7.453,4.2a6.134,6.134,0,0,0-.812-.062,1.654,1.654,0,0,0-1.68.867V0h-2.258V-8.453h2.133l.063,1.008a2.092,2.092,0,0,1,1.883-1.164,2.366,2.366,0,0,1,.7.1ZM-13.23,0H-15.5V-8.453h2.266Zm-2.4-10.641a1.112,1.112,0,0,1,.34-.836,1.277,1.277,0,0,1,.926-.328,1.28,1.28,0,0,1,.922.328,1.105,1.105,0,0,1,.344.836,1.108,1.108,0,0,1-.348.844,1.283,1.283,0,0,1-.918.328,1.283,1.283,0,0,1-.918-.328A1.108,1.108,0,0,1-15.629-10.641ZM-3.754-4.148A5.119,5.119,0,0,1-4.621-.98,2.872,2.872,0,0,1-7.043.156,2.639,2.639,0,0,1-9.238-.9l-.1.9h-2.031V-12h2.258v4.3a2.571,2.571,0,0,1,2.055-.914A2.9,2.9,0,0,1-4.633-7.473a5.126,5.126,0,0,1,.879,3.2Zm-2.258-.164a3.363,3.363,0,0,0-.406-1.871,1.374,1.374,0,0,0-1.211-.59,1.489,1.489,0,0,0-1.484.883v3.336a1.509,1.509,0,0,0,1.5.891A1.394,1.394,0,0,0-6.176-2.742,5.562,5.562,0,0,0-6.012-4.312ZM2.7-.859A2.831,2.831,0,0,1,.387.156,2.67,2.67,0,0,1-1.687-.625a3.335,3.335,0,0,1-.73-2.289V-8.453H-.16v5.467q0,1.322,1.2,1.322a1.63,1.63,0,0,0,1.578-.8V-8.453H4.887V0H2.762ZM8.973,0H6.707V-8.453H8.973Zm-2.4-10.641a1.112,1.112,0,0,1,.34-.836A1.277,1.277,0,0,1,7.84-11.8a1.28,1.28,0,0,1,.922.328,1.105,1.105,0,0,1,.344.836,1.108,1.108,0,0,1-.348.844,1.283,1.283,0,0,1-.918.328A1.283,1.283,0,0,1,6.922-9.8,1.108,1.108,0,0,1,6.574-10.641ZM10.48-4.289a5.094,5.094,0,0,1,.887-3.148,2.877,2.877,0,0,1,2.426-1.172,2.589,2.589,0,0,1,2.039.922V-12H18.1V0H16.059l-.109-.9A2.657,2.657,0,0,1,13.777.156,2.869,2.869,0,0,1,11.383-1.02,5.258,5.258,0,0,1,10.48-4.289Zm2.258.168A3.337,3.337,0,0,0,13.152-2.3a1.349,1.349,0,0,0,1.2.634,1.511,1.511,0,0,0,1.477-.884V-5.889a1.489,1.489,0,0,0-1.461-.884Q12.738-6.773,12.738-4.121ZM19.5-4.3a5.013,5.013,0,0,1,.484-2.242A3.546,3.546,0,0,1,21.375-8.07a4.069,4.069,0,0,1,2.113-.539,3.849,3.849,0,0,1,2.793,1.047,4.2,4.2,0,0,1,1.207,2.844l.016.578A4.418,4.418,0,0,1,26.418-1.02,3.775,3.775,0,0,1,23.5.156a3.793,3.793,0,0,1-2.918-1.172A4.5,4.5,0,0,1,19.5-4.2Zm2.258.16A3.16,3.16,0,0,0,22.207-2.3a1.5,1.5,0,0,0,1.3.638,1.5,1.5,0,0,0,1.281-.63,3.457,3.457,0,0,0,.461-2.015,3.128,3.128,0,0,0-.461-1.831,1.5,1.5,0,0,0-1.3-.649,1.474,1.474,0,0,0-1.281.646A3.516,3.516,0,0,0,21.754-4.144ZM33.645-6.336a6.134,6.134,0,0,0-.812-.062,1.654,1.654,0,0,0-1.68.867V0H28.895V-8.453h2.133l.063,1.008a2.092,2.092,0,0,1,1.883-1.164,2.366,2.366,0,0,1,.7.1ZM38.473.156A4.15,4.15,0,0,1,35.445-.984a4.054,4.054,0,0,1-1.168-3.039v-.219A5.106,5.106,0,0,1,34.77-6.52a3.612,3.612,0,0,1,1.395-1.547,3.914,3.914,0,0,1,2.059-.543,3.508,3.508,0,0,1,2.73,1.094,4.444,4.444,0,0,1,1,3.1v.922H36.566a2.1,2.1,0,0,0,.66,1.328,2,2,0,0,0,1.395.5,2.437,2.437,0,0,0,2.039-.945L41.77-1.367A3.389,3.389,0,0,1,40.395-.246,4.511,4.511,0,0,1,38.473.156Zm-.258-6.945a1.411,1.411,0,0,0-1.09.455,2.357,2.357,0,0,0-.535,1.3H39.73v-.181a1.681,1.681,0,0,0-.406-1.165A1.456,1.456,0,0,0,38.215-6.789Zm9.594,4.453a.727.727,0,0,0-.41-.652,4.659,4.659,0,0,0-1.316-.426q-3.016-.633-3.016-2.562A2.323,2.323,0,0,1,44-7.855a3.766,3.766,0,0,1,2.441-.754,4.053,4.053,0,0,1,2.574.758,2.388,2.388,0,0,1,.965,1.969H47.723a1.092,1.092,0,0,0-.312-.8A1.322,1.322,0,0,0,46.434-7a1.351,1.351,0,0,0-.883.258.814.814,0,0,0-.312.656.7.7,0,0,0,.355.605,3.657,3.657,0,0,0,1.2.4,9.8,9.8,0,0,1,1.422.379A2.336,2.336,0,0,1,50-2.43a2.2,2.2,0,0,1-.992,1.871,4.28,4.28,0,0,1-2.562.715,4.47,4.47,0,0,1-1.887-.379A3.166,3.166,0,0,1,43.27-1.262,2.414,2.414,0,0,1,42.8-2.687h2.141a1.179,1.179,0,0,0,.445.922,1.766,1.766,0,0,0,1.109.32,1.635,1.635,0,0,0,.98-.246A.766.766,0,0,0,47.809-2.336Z" transform="translate(411 1876)" fill="#12263f"/>
    <path id="Trazado_158503" data-name="Trazado 158503" d="M-19.785-4.008V0h-2.344V-11.375h4.438a5.134,5.134,0,0,1,2.254.469,3.454,3.454,0,0,1,1.5,1.332,3.714,3.714,0,0,1,.523,1.965,3.266,3.266,0,0,1-1.145,2.637,4.767,4.767,0,0,1-3.168.965Zm0-1.9h2.094a2.059,2.059,0,0,0,1.418-.437,1.591,1.591,0,0,0,.488-1.25,1.876,1.876,0,0,0-.492-1.352,1.839,1.839,0,0,0-1.359-.531h-2.148Zm12.578-.43A6.134,6.134,0,0,0-8.02-6.4a1.654,1.654,0,0,0-1.68.867V0h-2.258V-8.453h2.133l.063,1.008A2.092,2.092,0,0,1-7.879-8.609a2.366,2.366,0,0,1,.7.1ZM-2.379.156A4.15,4.15,0,0,1-5.406-.984,4.054,4.054,0,0,1-6.574-4.023v-.219A5.106,5.106,0,0,1-6.082-6.52,3.612,3.612,0,0,1-4.687-8.066a3.914,3.914,0,0,1,2.059-.543A3.508,3.508,0,0,1,.1-7.516a4.444,4.444,0,0,1,1,3.1v.922H-4.285a2.1,2.1,0,0,0,.66,1.328,2,2,0,0,0,1.395.5A2.437,2.437,0,0,0-.191-2.609L.918-1.367A3.389,3.389,0,0,1-.457-.246,4.511,4.511,0,0,1-2.379.156Zm-.258-6.945a1.411,1.411,0,0,0-1.09.455,2.357,2.357,0,0,0-.535,1.3h3.141v-.181a1.681,1.681,0,0,0-.406-1.165A1.456,1.456,0,0,0-2.637-6.789ZM5.895-1.664A1.481,1.481,0,0,0,6.91-2.008a1.2,1.2,0,0,0,.406-.914H9.434a2.9,2.9,0,0,1-.469,1.574A3.093,3.093,0,0,1,7.7-.238a3.949,3.949,0,0,1-1.77.395A3.67,3.67,0,0,1,3.074-1,4.56,4.56,0,0,1,2.027-4.18v-.148A4.508,4.508,0,0,1,3.066-7.445,3.627,3.627,0,0,1,5.918-8.609a3.555,3.555,0,0,1,2.543.9,3.2,3.2,0,0,1,.973,2.4H7.316A1.551,1.551,0,0,0,6.91-6.377a1.354,1.354,0,0,0-1.031-.412,1.36,1.36,0,0,0-1.191.575,3.333,3.333,0,0,0-.4,1.866v.235a3.375,3.375,0,0,0,.4,1.878A1.377,1.377,0,0,0,5.895-1.664ZM13.105,0H10.84V-8.453h2.266Zm-2.4-10.641a1.112,1.112,0,0,1,.34-.836,1.277,1.277,0,0,1,.926-.328,1.28,1.28,0,0,1,.922.328,1.105,1.105,0,0,1,.344.836,1.108,1.108,0,0,1-.348.844,1.283,1.283,0,0,1-.918.328,1.283,1.283,0,0,1-.918-.328A1.108,1.108,0,0,1,10.707-10.641ZM14.613-4.3A5.013,5.013,0,0,1,15.1-6.547,3.546,3.546,0,0,1,16.492-8.07a4.069,4.069,0,0,1,2.113-.539A3.849,3.849,0,0,1,21.4-7.562a4.2,4.2,0,0,1,1.207,2.844l.016.578A4.418,4.418,0,0,1,21.535-1.02,3.775,3.775,0,0,1,18.621.156,3.793,3.793,0,0,1,15.7-1.016,4.5,4.5,0,0,1,14.613-4.2Zm2.258.16A3.16,3.16,0,0,0,17.324-2.3a1.5,1.5,0,0,0,1.3.638,1.5,1.5,0,0,0,1.281-.63,3.457,3.457,0,0,0,.461-2.015A3.128,3.128,0,0,0,19.9-6.14a1.5,1.5,0,0,0-1.3-.649,1.474,1.474,0,0,0-1.281.646A3.516,3.516,0,0,0,16.871-4.144Z" transform="translate(411 1950)" fill="#12263f"/>
    <path id="Trazado_158506" data-name="Trazado 158506" d="M-40.648-4.008V0h-2.344V-11.375h4.438a5.134,5.134,0,0,1,2.254.469,3.454,3.454,0,0,1,1.5,1.332,3.714,3.714,0,0,1,.523,1.965,3.266,3.266,0,0,1-1.145,2.637,4.767,4.767,0,0,1-3.168.965Zm0-1.9h2.094a2.059,2.059,0,0,0,1.418-.437,1.591,1.591,0,0,0,.488-1.25,1.876,1.876,0,0,0-.492-1.352A1.839,1.839,0,0,0-38.5-9.477h-2.148Zm12.578-.43a6.134,6.134,0,0,0-.812-.062,1.654,1.654,0,0,0-1.68.867V0H-32.82V-8.453h2.133l.063,1.008a2.092,2.092,0,0,1,1.883-1.164,2.366,2.366,0,0,1,.7.1Zm.453,2.031a5.013,5.013,0,0,1,.484-2.242A3.546,3.546,0,0,1-25.738-8.07a4.069,4.069,0,0,1,2.113-.539,3.849,3.849,0,0,1,2.793,1.047,4.2,4.2,0,0,1,1.207,2.844l.016.578A4.418,4.418,0,0,1-20.7-1.02,3.775,3.775,0,0,1-23.609.156a3.793,3.793,0,0,1-2.918-1.172A4.5,4.5,0,0,1-27.617-4.2Zm2.258.16A3.16,3.16,0,0,0-24.906-2.3a1.5,1.5,0,0,0,1.3.638,1.5,1.5,0,0,0,1.281-.63,3.457,3.457,0,0,0,.461-2.015,3.128,3.128,0,0,0-.461-1.831,1.5,1.5,0,0,0-1.3-.649,1.474,1.474,0,0,0-1.281.646A3.516,3.516,0,0,0-25.359-4.144Zm6.789-.145a5.094,5.094,0,0,1,.887-3.148,2.877,2.877,0,0,1,2.426-1.172,2.589,2.589,0,0,1,2.039.922V-12h2.266V0h-2.039L-13.1-.9A2.657,2.657,0,0,1-15.273.156,2.869,2.869,0,0,1-17.668-1.02,5.258,5.258,0,0,1-18.57-4.289Zm2.258.168A3.337,3.337,0,0,0-15.9-2.3a1.349,1.349,0,0,0,1.2.634,1.511,1.511,0,0,0,1.477-.884V-5.889a1.489,1.489,0,0,0-1.461-.884Q-16.313-6.773-16.312-4.121ZM-4.141-.859A2.831,2.831,0,0,1-6.453.156,2.67,2.67,0,0,1-8.527-.625a3.335,3.335,0,0,1-.73-2.289V-8.453H-7v5.467q0,1.322,1.2,1.322a1.63,1.63,0,0,0,1.578-.8V-8.453h2.266V0H-4.078Zm7.406-.8a1.481,1.481,0,0,0,1.016-.344,1.2,1.2,0,0,0,.406-.914H6.8a2.9,2.9,0,0,1-.469,1.574A3.093,3.093,0,0,1,5.074-.238,3.949,3.949,0,0,1,3.3.156,3.67,3.67,0,0,1,.445-1,4.56,4.56,0,0,1-.6-4.18v-.148A4.508,4.508,0,0,1,.438-7.445,3.627,3.627,0,0,1,3.289-8.609a3.555,3.555,0,0,1,2.543.9A3.2,3.2,0,0,1,6.8-5.3H4.688a1.551,1.551,0,0,0-.406-1.072A1.354,1.354,0,0,0,3.25-6.789a1.36,1.36,0,0,0-1.191.575,3.333,3.333,0,0,0-.4,1.866v.235a3.375,3.375,0,0,0,.4,1.878A1.377,1.377,0,0,0,3.266-1.664ZM10.8-10.531v2.078h1.445V-6.8H10.8v4.219a1.007,1.007,0,0,0,.18.672.9.9,0,0,0,.688.2,3.6,3.6,0,0,0,.664-.055V-.047a4.648,4.648,0,0,1-1.367.2,2.156,2.156,0,0,1-2.422-2.4V-6.8H7.3V-8.453H8.539v-2.078ZM12.914-4.3A5.013,5.013,0,0,1,13.4-6.547,3.546,3.546,0,0,1,14.793-8.07a4.069,4.069,0,0,1,2.113-.539A3.849,3.849,0,0,1,19.7-7.562a4.2,4.2,0,0,1,1.207,2.844l.016.578A4.418,4.418,0,0,1,19.836-1.02,3.775,3.775,0,0,1,16.922.156,3.793,3.793,0,0,1,14-1.016,4.5,4.5,0,0,1,12.914-4.2Zm2.258.16A3.16,3.16,0,0,0,15.625-2.3a1.5,1.5,0,0,0,1.3.638,1.5,1.5,0,0,0,1.281-.63,3.457,3.457,0,0,0,.461-2.015A3.128,3.128,0,0,0,18.2-6.14a1.5,1.5,0,0,0-1.3-.649,1.474,1.474,0,0,0-1.281.646A3.516,3.516,0,0,0,15.172-4.144ZM27.063-6.336A6.134,6.134,0,0,0,26.25-6.4a1.654,1.654,0,0,0-1.68.867V0H22.313V-8.453h2.133l.063,1.008a2.092,2.092,0,0,1,1.883-1.164,2.366,2.366,0,0,1,.7.1ZM31.891.156A4.15,4.15,0,0,1,28.863-.984,4.054,4.054,0,0,1,27.7-4.023v-.219a5.106,5.106,0,0,1,.492-2.277,3.612,3.612,0,0,1,1.395-1.547,3.914,3.914,0,0,1,2.059-.543,3.508,3.508,0,0,1,2.73,1.094,4.444,4.444,0,0,1,1,3.1v.922H29.984a2.1,2.1,0,0,0,.66,1.328,2,2,0,0,0,1.395.5,2.437,2.437,0,0,0,2.039-.945l1.109,1.242A3.389,3.389,0,0,1,33.813-.246,4.511,4.511,0,0,1,31.891.156Zm-.258-6.945a1.411,1.411,0,0,0-1.09.455,2.357,2.357,0,0,0-.535,1.3h3.141v-.181a1.681,1.681,0,0,0-.406-1.165A1.456,1.456,0,0,0,31.633-6.789Zm9.594,4.453a.727.727,0,0,0-.41-.652A4.659,4.659,0,0,0,39.5-3.414q-3.016-.633-3.016-2.562a2.323,2.323,0,0,1,.934-1.879,3.766,3.766,0,0,1,2.441-.754,4.053,4.053,0,0,1,2.574.758A2.388,2.388,0,0,1,43.4-5.883H41.141a1.092,1.092,0,0,0-.312-.8A1.322,1.322,0,0,0,39.852-7a1.351,1.351,0,0,0-.883.258.814.814,0,0,0-.312.656.7.7,0,0,0,.355.605,3.657,3.657,0,0,0,1.2.4,9.8,9.8,0,0,1,1.422.379A2.336,2.336,0,0,1,43.422-2.43,2.2,2.2,0,0,1,42.43-.559a4.28,4.28,0,0,1-2.562.715A4.47,4.47,0,0,1,37.98-.223a3.166,3.166,0,0,1-1.293-1.039,2.414,2.414,0,0,1-.469-1.426h2.141a1.179,1.179,0,0,0,.445.922,1.766,1.766,0,0,0,1.109.32,1.635,1.635,0,0,0,.98-.246A.766.766,0,0,0,41.227-2.336Z" transform="translate(663 1802)" fill="#12263f"/>
    <path id="Trazado_158505" data-name="Trazado 158505" d="M-29.367-4.008V0h-2.344V-11.375h4.438a5.134,5.134,0,0,1,2.254.469,3.454,3.454,0,0,1,1.5,1.332A3.714,3.714,0,0,1-23-7.609a3.266,3.266,0,0,1-1.145,2.637,4.767,4.767,0,0,1-3.168.965Zm0-1.9h2.094a2.059,2.059,0,0,0,1.418-.437,1.591,1.591,0,0,0,.488-1.25,1.876,1.876,0,0,0-.492-1.352,1.839,1.839,0,0,0-1.359-.531h-2.148Zm12.578-.43A6.134,6.134,0,0,0-17.6-6.4a1.654,1.654,0,0,0-1.68.867V0h-2.258V-8.453h2.133l.063,1.008a2.092,2.092,0,0,1,1.883-1.164,2.366,2.366,0,0,1,.7.1Zm.453,2.031a5.013,5.013,0,0,1,.484-2.242A3.546,3.546,0,0,1-14.457-8.07a4.069,4.069,0,0,1,2.113-.539A3.849,3.849,0,0,1-9.551-7.562,4.2,4.2,0,0,1-8.344-4.719l.016.578A4.418,4.418,0,0,1-9.414-1.02,3.775,3.775,0,0,1-12.328.156a3.793,3.793,0,0,1-2.918-1.172A4.5,4.5,0,0,1-16.336-4.2Zm2.258.16A3.16,3.16,0,0,0-13.625-2.3a1.5,1.5,0,0,0,1.3.638,1.5,1.5,0,0,0,1.281-.63,3.457,3.457,0,0,0,.461-2.015,3.128,3.128,0,0,0-.461-1.831,1.5,1.5,0,0,0-1.3-.649,1.474,1.474,0,0,0-1.281.646A3.516,3.516,0,0,0-14.078-4.144Zm6.789-.145A5.094,5.094,0,0,1-6.4-7.437,2.877,2.877,0,0,1-3.977-8.609a2.589,2.589,0,0,1,2.039.922V-12H.328V0H-1.711L-1.82-.9A2.657,2.657,0,0,1-3.992.156,2.869,2.869,0,0,1-6.387-1.02,5.258,5.258,0,0,1-7.289-4.289Zm2.258.168A3.337,3.337,0,0,0-4.617-2.3a1.349,1.349,0,0,0,1.2.634,1.511,1.511,0,0,0,1.477-.884V-5.889A1.489,1.489,0,0,0-3.4-6.773Q-5.031-6.773-5.031-4.121ZM7.141-.859A2.831,2.831,0,0,1,4.828.156,2.67,2.67,0,0,1,2.754-.625a3.335,3.335,0,0,1-.73-2.289V-8.453H4.281v5.467q0,1.322,1.2,1.322a1.63,1.63,0,0,0,1.578-.8V-8.453H9.328V0H7.2Zm7.406-.8a1.481,1.481,0,0,0,1.016-.344,1.2,1.2,0,0,0,.406-.914h2.117a2.9,2.9,0,0,1-.469,1.574A3.093,3.093,0,0,1,16.355-.238a3.949,3.949,0,0,1-1.77.395A3.67,3.67,0,0,1,11.727-1,4.56,4.56,0,0,1,10.68-4.18v-.148a4.508,4.508,0,0,1,1.039-3.117A3.627,3.627,0,0,1,14.57-8.609a3.555,3.555,0,0,1,2.543.9,3.2,3.2,0,0,1,.973,2.4H15.969a1.551,1.551,0,0,0-.406-1.072,1.354,1.354,0,0,0-1.031-.412,1.36,1.36,0,0,0-1.191.575,3.333,3.333,0,0,0-.4,1.866v.235a3.375,3.375,0,0,0,.4,1.878A1.377,1.377,0,0,0,14.547-1.664Zm7.531-8.867v2.078h1.445V-6.8H22.078v4.219a1.007,1.007,0,0,0,.18.672.9.9,0,0,0,.688.2,3.6,3.6,0,0,0,.664-.055V-.047a4.648,4.648,0,0,1-1.367.2,2.156,2.156,0,0,1-2.422-2.4V-6.8H18.586V-8.453H19.82v-2.078ZM24.2-4.3a5.013,5.013,0,0,1,.484-2.242A3.546,3.546,0,0,1,26.074-8.07a4.069,4.069,0,0,1,2.113-.539A3.849,3.849,0,0,1,30.98-7.562a4.2,4.2,0,0,1,1.207,2.844l.016.578A4.418,4.418,0,0,1,31.117-1.02,3.775,3.775,0,0,1,28.2.156a3.793,3.793,0,0,1-2.918-1.172A4.5,4.5,0,0,1,24.2-4.2Zm2.258.16A3.16,3.16,0,0,0,26.906-2.3a1.5,1.5,0,0,0,1.3.638,1.5,1.5,0,0,0,1.281-.63,3.457,3.457,0,0,0,.461-2.015,3.128,3.128,0,0,0-.461-1.831,1.5,1.5,0,0,0-1.3-.649,1.474,1.474,0,0,0-1.281.646A3.516,3.516,0,0,0,26.453-4.144Z" transform="translate(663 1876)" fill="#12263f"/>
    <path id="Trazado_158502" data-name="Trazado 158502" d="M-33,0V-11.375h3.5a5.315,5.315,0,0,1,2.684.676,4.712,4.712,0,0,1,1.848,1.922A5.928,5.928,0,0,1-24.3-5.945v.523a5.945,5.945,0,0,1-.652,2.82A4.672,4.672,0,0,1-26.8-.687,5.355,5.355,0,0,1-29.477,0Zm2.344-9.477v7.594h1.133a2.545,2.545,0,0,0,2.1-.9,4.06,4.06,0,0,0,.742-2.57v-.6A4.124,4.124,0,0,0-27.4-8.582a2.537,2.537,0,0,0-2.1-.895Zm11.8,9.633A4.15,4.15,0,0,1-21.887-.984a4.054,4.054,0,0,1-1.168-3.039v-.219a5.106,5.106,0,0,1,.492-2.277,3.612,3.612,0,0,1,1.395-1.547,3.914,3.914,0,0,1,2.059-.543,3.508,3.508,0,0,1,2.73,1.094,4.444,4.444,0,0,1,1,3.1v.922h-5.383a2.1,2.1,0,0,0,.66,1.328,2,2,0,0,0,1.395.5,2.437,2.437,0,0,0,2.039-.945l1.109,1.242A3.389,3.389,0,0,1-16.937-.246,4.511,4.511,0,0,1-18.859.156Zm-.258-6.945a1.411,1.411,0,0,0-1.09.455,2.357,2.357,0,0,0-.535,1.3H-17.6v-.181a1.681,1.681,0,0,0-.406-1.165A1.456,1.456,0,0,0-19.117-6.789Zm7.133-1.664.07.945a2.971,2.971,0,0,1,2.43-1.1A2.255,2.255,0,0,1-7.242-7.32,2.9,2.9,0,0,1-4.7-8.609a2.521,2.521,0,0,1,2.047.8A3.681,3.681,0,0,1-1.984-5.4V0H-4.25V-5.391a1.61,1.61,0,0,0-.281-1.051,1.246,1.246,0,0,0-.992-.332A1.409,1.409,0,0,0-6.93-5.8L-6.922,0H-9.18V-5.383a1.59,1.59,0,0,0-.289-1.062,1.259,1.259,0,0,0-.984-.328,1.463,1.463,0,0,0-1.391.8V0H-14.1V-8.453ZM4.648,0a2.507,2.507,0,0,1-.227-.758A2.732,2.732,0,0,1,2.289.156,3,3,0,0,1,.23-.562,2.312,2.312,0,0,1-.586-2.375a2.389,2.389,0,0,1,1-2.062,4.915,4.915,0,0,1,2.879-.727H4.328v-.484a1.393,1.393,0,0,0-.3-.937,1.183,1.183,0,0,0-.949-.352,1.345,1.345,0,0,0-.895.273.929.929,0,0,0-.324.75H-.4A2.268,2.268,0,0,1,.055-7.273a3,3,0,0,1,1.281-.98A4.669,4.669,0,0,1,3.2-8.609a3.689,3.689,0,0,1,2.48.785,2.747,2.747,0,0,1,.918,2.207v3.664A4.041,4.041,0,0,0,6.93-.133V0ZM2.781-1.57A1.945,1.945,0,0,0,3.7-1.793a1.462,1.462,0,0,0,.625-.6V-3.844H3.484q-1.7,0-1.8,1.172l-.008.133a.9.9,0,0,0,.3.7A1.153,1.153,0,0,0,2.781-1.57Zm7.625-6.883.07.977a2.951,2.951,0,0,1,2.43-1.133,2.453,2.453,0,0,1,2,.789,3.682,3.682,0,0,1,.672,2.359V0H13.32V-5.406a1.465,1.465,0,0,0-.312-1.043,1.4,1.4,0,0,0-1.039-.324,1.553,1.553,0,0,0-1.43.813V0H8.281V-8.453Zm6.531,4.164a5.094,5.094,0,0,1,.887-3.148A2.877,2.877,0,0,1,20.25-8.609a2.589,2.589,0,0,1,2.039.922V-12h2.266V0H22.516l-.109-.9A2.657,2.657,0,0,1,20.234.156,2.869,2.869,0,0,1,17.84-1.02,5.258,5.258,0,0,1,16.938-4.289Zm2.258.168A3.337,3.337,0,0,0,19.609-2.3a1.349,1.349,0,0,0,1.2.634,1.511,1.511,0,0,0,1.477-.884V-5.889a1.489,1.489,0,0,0-1.461-.884Q19.2-6.773,19.2-4.121ZM31.2,0a2.507,2.507,0,0,1-.227-.758,2.732,2.732,0,0,1-2.133.914,3,3,0,0,1-2.059-.719,2.312,2.312,0,0,1-.816-1.812,2.389,2.389,0,0,1,1-2.062,4.915,4.915,0,0,1,2.879-.727h1.039v-.484a1.393,1.393,0,0,0-.3-.937,1.183,1.183,0,0,0-.949-.352,1.345,1.345,0,0,0-.895.273.929.929,0,0,0-.324.75H26.156a2.268,2.268,0,0,1,.453-1.359,3,3,0,0,1,1.281-.98,4.669,4.669,0,0,1,1.859-.355,3.689,3.689,0,0,1,2.48.785,2.747,2.747,0,0,1,.918,2.207v3.664a4.041,4.041,0,0,0,.336,1.82V0ZM29.336-1.57a1.945,1.945,0,0,0,.922-.223,1.462,1.462,0,0,0,.625-.6V-3.844h-.844q-1.7,0-1.8,1.172l-.008.133a.9.9,0,0,0,.3.7A1.153,1.153,0,0,0,29.336-1.57Z" transform="translate(663 1950)" fill="#12263f"/>
    <path id="Trazado_158501" data-name="Trazado 158501" d="M-33,0V-11.375h3.5a5.315,5.315,0,0,1,2.684.676,4.712,4.712,0,0,1,1.848,1.922A5.928,5.928,0,0,1-24.3-5.945v.523a5.945,5.945,0,0,1-.652,2.82A4.672,4.672,0,0,1-26.8-.687,5.355,5.355,0,0,1-29.477,0Zm2.344-9.477v7.594h1.133a2.545,2.545,0,0,0,2.1-.9,4.06,4.06,0,0,0,.742-2.57v-.6A4.124,4.124,0,0,0-27.4-8.582a2.537,2.537,0,0,0-2.1-.895Zm11.8,9.633A4.15,4.15,0,0,1-21.887-.984a4.054,4.054,0,0,1-1.168-3.039v-.219a5.106,5.106,0,0,1,.492-2.277,3.612,3.612,0,0,1,1.395-1.547,3.914,3.914,0,0,1,2.059-.543,3.508,3.508,0,0,1,2.73,1.094,4.444,4.444,0,0,1,1,3.1v.922h-5.383a2.1,2.1,0,0,0,.66,1.328,2,2,0,0,0,1.395.5,2.437,2.437,0,0,0,2.039-.945l1.109,1.242A3.389,3.389,0,0,1-16.937-.246,4.511,4.511,0,0,1-18.859.156Zm-.258-6.945a1.411,1.411,0,0,0-1.09.455,2.357,2.357,0,0,0-.535,1.3H-17.6v-.181a1.681,1.681,0,0,0-.406-1.165A1.456,1.456,0,0,0-19.117-6.789Zm7.133-1.664.07.945a2.971,2.971,0,0,1,2.43-1.1A2.255,2.255,0,0,1-7.242-7.32,2.9,2.9,0,0,1-4.7-8.609a2.521,2.521,0,0,1,2.047.8A3.681,3.681,0,0,1-1.984-5.4V0H-4.25V-5.391a1.61,1.61,0,0,0-.281-1.051,1.246,1.246,0,0,0-.992-.332A1.409,1.409,0,0,0-6.93-5.8L-6.922,0H-9.18V-5.383a1.59,1.59,0,0,0-.289-1.062,1.259,1.259,0,0,0-.984-.328,1.463,1.463,0,0,0-1.391.8V0H-14.1V-8.453ZM4.648,0a2.507,2.507,0,0,1-.227-.758A2.732,2.732,0,0,1,2.289.156,3,3,0,0,1,.23-.562,2.312,2.312,0,0,1-.586-2.375a2.389,2.389,0,0,1,1-2.062,4.915,4.915,0,0,1,2.879-.727H4.328v-.484a1.393,1.393,0,0,0-.3-.937,1.183,1.183,0,0,0-.949-.352,1.345,1.345,0,0,0-.895.273.929.929,0,0,0-.324.75H-.4A2.268,2.268,0,0,1,.055-7.273a3,3,0,0,1,1.281-.98A4.669,4.669,0,0,1,3.2-8.609a3.689,3.689,0,0,1,2.48.785,2.747,2.747,0,0,1,.918,2.207v3.664A4.041,4.041,0,0,0,6.93-.133V0ZM2.781-1.57A1.945,1.945,0,0,0,3.7-1.793a1.462,1.462,0,0,0,.625-.6V-3.844H3.484q-1.7,0-1.8,1.172l-.008.133a.9.9,0,0,0,.3.7A1.153,1.153,0,0,0,2.781-1.57Zm7.625-6.883.07.977a2.951,2.951,0,0,1,2.43-1.133,2.453,2.453,0,0,1,2,.789,3.682,3.682,0,0,1,.672,2.359V0H13.32V-5.406a1.465,1.465,0,0,0-.312-1.043,1.4,1.4,0,0,0-1.039-.324,1.553,1.553,0,0,0-1.43.813V0H8.281V-8.453Zm6.531,4.164a5.094,5.094,0,0,1,.887-3.148A2.877,2.877,0,0,1,20.25-8.609a2.589,2.589,0,0,1,2.039.922V-12h2.266V0H22.516l-.109-.9A2.657,2.657,0,0,1,20.234.156,2.869,2.869,0,0,1,17.84-1.02,5.258,5.258,0,0,1,16.938-4.289Zm2.258.168A3.337,3.337,0,0,0,19.609-2.3a1.349,1.349,0,0,0,1.2.634,1.511,1.511,0,0,0,1.477-.884V-5.889a1.489,1.489,0,0,0-1.461-.884Q19.2-6.773,19.2-4.121ZM31.2,0a2.507,2.507,0,0,1-.227-.758,2.732,2.732,0,0,1-2.133.914,3,3,0,0,1-2.059-.719,2.312,2.312,0,0,1-.816-1.812,2.389,2.389,0,0,1,1-2.062,4.915,4.915,0,0,1,2.879-.727h1.039v-.484a1.393,1.393,0,0,0-.3-.937,1.183,1.183,0,0,0-.949-.352,1.345,1.345,0,0,0-.895.273.929.929,0,0,0-.324.75H26.156a2.268,2.268,0,0,1,.453-1.359,3,3,0,0,1,1.281-.98,4.669,4.669,0,0,1,1.859-.355,3.689,3.689,0,0,1,2.48.785,2.747,2.747,0,0,1,.918,2.207v3.664a4.041,4.041,0,0,0,.336,1.82V0ZM29.336-1.57a1.945,1.945,0,0,0,.922-.223,1.462,1.462,0,0,0,.625-.6V-3.844h-.844q-1.7,0-1.8,1.172l-.008.133a.9.9,0,0,0,.3.7A1.153,1.153,0,0,0,29.336-1.57Z" transform="translate(538 2024)" fill="#12263f"/>
  </g>
</svg>
