<svg xmlns="http://www.w3.org/2000/svg" width="465" height="255" viewBox="0 0 465 255">
  <g id="Grupo_115773" data-name="Grupo 115773" transform="translate(-285 -2281)">
    <rect id="Image_Place_Holder" data-name="Image Place Holder" width="465" height="255" transform="translate(285 2281)" fill="#e8e8e8"/>
    <g id="hombre" transform="translate(324.128 2341)">
      <path id="Trazado_158517" data-name="Trazado 158517" d="M333.781,146.9h7.991v11.187h-7.991Z" transform="translate(-181.806 -108.168)" fill="#5a5a5a"/>
      <path id="Trazado_158518" data-name="Trazado 158518" d="M147.911,146.9H155.9v11.187h-7.991Z" transform="translate(-44.945 -108.168)" fill="#5a5a5a"/>
      <path id="Trazado_158519" data-name="Trazado 158519" d="M174.277,230.529H99.7a5.327,5.327,0,0,1-5.327-5.327V210.819a5.327,5.327,0,0,1,5.327-5.327h74.578a5.327,5.327,0,0,1,5.327,5.327V225.2A5.327,5.327,0,0,1,174.277,230.529Z" transform="translate(-5.522 -151.31)" fill="#a7e446"/>
      <path id="Trazado_158520" data-name="Trazado 158520" d="M117.606,205.492v2.131a10.67,10.67,0,0,0,8.957,10.517,27.849,27.849,0,0,0,5.59,12.389h43.885a27.853,27.853,0,0,0,5.59-12.389,10.67,10.67,0,0,0,8.957-10.517v-2.131Z" transform="translate(-22.63 -151.31)" fill="#8cbf3b"/>
      <path id="Trazado_158521" data-name="Trazado 158521" d="M124.677,300.447h69.251v19.71H124.677Z" transform="translate(-27.837 -221.228)" fill="#fc4b52"/>
      <path id="Trazado_158522" data-name="Trazado 158522" d="M172.779,300.447a27.923,27.923,0,0,0,43.885,0Z" transform="translate(-63.256 -221.228)" fill="#d94047"/>
      <path id="Trazado_158523" data-name="Trazado 158523" d="M167.3,343.916l-21.52-5.083H128.2l-21.52,5.083a15.981,15.981,0,0,0-12.307,15.553v23.045H179.6V359.47A15.981,15.981,0,0,0,167.3,343.916Z" transform="translate(-5.522 -249.492)" fill="#dff7f9"/>
      <path id="Trazado_158524" data-name="Trazado 158524" d="M207.978,356.146a17.335,17.335,0,0,0,17.2-15.327l-8.406-1.986H199.189l-8.406,1.986a17.335,17.335,0,0,0,17.2,15.327Z" transform="translate(-76.513 -249.492)" fill="#a4b7b8"/>
      <path id="Trazado_158525" data-name="Trazado 158525" d="M367.448,369.932a15.981,15.981,0,0,0-12.307-15.553l-5.661-1.337a15.982,15.982,0,0,1,7.314,13.428v26.507h10.654Z" transform="translate(-193.366 -259.955)" fill="#cae3e6"/>
      <path id="Trazado_158526" data-name="Trazado 158526" d="M231.452,321.59a8.789,8.789,0,0,1-8.789-8.789v-9.322h17.579V312.8a8.79,8.79,0,0,1-8.79,8.789Z" transform="translate(-99.987 -223.46)" fill="#f6a96c"/>
      <path id="Trazado_158527" data-name="Trazado 158527" d="M178.216,170.076a20.509,20.509,0,1,0,41.018,0V146.9H178.216Z" transform="translate(-67.259 -108.169)" fill="#fed2a4"/>
      <path id="Trazado_158528" data-name="Trazado 158528" d="M256.082,146.9v23.173a20.514,20.514,0,0,1-16.247,20.063,20.515,20.515,0,0,0,24.771-20.063V146.9Z" transform="translate(-112.631 -108.168)" fill="#ffbd86"/>
      <path id="Trazado_158529" data-name="Trazado 158529" d="M158.012,36.266v-2.93a25.836,25.836,0,1,1,51.672,0v2.93Z" transform="translate(-52.382 -5.522)" fill="#fed866"/>
      <path id="Trazado_158530" data-name="Trazado 158530" d="M244.84,7.5a26.022,26.022,0,0,0-4,.308,25.842,25.842,0,0,1,21.841,25.528v2.93h7.991v-2.93A25.836,25.836,0,0,0,244.84,7.5Z" transform="translate(-113.375 -5.522)" fill="#feca2e"/>
      <path id="Trazado_158531" data-name="Trazado 158531" d="M339.108,189.992h-5.327V177.207h5.327a3.2,3.2,0,0,1,3.2,3.2V186.8A3.2,3.2,0,0,1,339.108,189.992Z" transform="translate(-181.806 -130.483)" fill="#f6a96c"/>
      <path id="Trazado_158532" data-name="Trazado 158532" d="M149.086,189.992h5.327V177.207h-5.327a3.2,3.2,0,0,0-3.2,3.2V186.8A3.2,3.2,0,0,0,149.086,189.992Z" transform="translate(-43.457 -130.483)" fill="#f6a96c"/>
      <path id="Trazado_158533" data-name="Trazado 158533" d="M334.7,378.052h-7.991V334.37a1.6,1.6,0,0,1,1.6-1.6H333.1a1.6,1.6,0,0,1,1.6,1.6Z" transform="translate(-176.599 -245.029)" fill="#d77f4a"/>
      <path id="Trazado_158534" data-name="Trazado 158534" d="M154.982,378.052h7.991V334.37a1.6,1.6,0,0,0-1.6-1.6H156.58a1.6,1.6,0,0,0-1.6,1.6Z" transform="translate(-50.151 -245.029)" fill="#d77f4a"/>
      <path id="Trazado_158535" data-name="Trazado 158535" d="M187.023,116.6H116.707a2.131,2.131,0,0,0-2.131,2.131v3.729a2.131,2.131,0,0,0,2.131,2.131h70.317a2.131,2.131,0,0,0,2.131-2.131v-3.729A2.131,2.131,0,0,0,187.023,116.6Z" transform="translate(-20.399 -85.854)" fill="#fed866"/>
      <path id="Trazado_158536" data-name="Trazado 158536" d="M367.026,116.6h-7.991a2.131,2.131,0,0,1,2.131,2.131v3.729a2.131,2.131,0,0,1-2.131,2.131h7.991a2.131,2.131,0,0,0,2.131-2.131v-3.729A2.131,2.131,0,0,0,367.026,116.6Z" transform="translate(-200.401 -85.854)" fill="#feca2e"/>
      <path id="Trazado_158537" data-name="Trazado 158537" d="M168.754,81.2a7.315,7.315,0,0,0,7.306-7.306V59.511a7.315,7.315,0,0,0-7.306-7.306h-6.279V49.921a5.133,5.133,0,0,0-.533-2.272V40.711h4.681a4.113,4.113,0,0,0,4.109-4.108V32.874a4.113,4.113,0,0,0-4.109-4.108h-7.345v-.952a27.814,27.814,0,0,0-55.627,0v.952H96.307A4.113,4.113,0,0,0,92.2,32.874V36.6a4.113,4.113,0,0,0,4.109,4.108h4.681v6.937a5.133,5.133,0,0,0-.533,2.272v2.284H94.176a7.313,7.313,0,0,0-7.3,7.3V73.893a7.313,7.313,0,0,0,7.3,7.3h.686V95.029a17.884,17.884,0,0,0-7.991,14.949v23.044A1.978,1.978,0,0,0,88.85,135h85.232a1.978,1.978,0,0,0,1.978-1.978V109.978a17.885,17.885,0,0,0-7.991-14.949V81.2ZM114.8,99.061a19.3,19.3,0,0,0,33.333,0v31.984H114.8Zm16.667,5.615a15.321,15.321,0,0,1-14.93-11.853l4.443-1.049a10.764,10.764,0,0,0,20.973,0l4.443,1.049A15.32,15.32,0,0,1,131.466,104.676Zm6.812-15.335a6.812,6.812,0,0,1-13.624,0V83.336a22.467,22.467,0,0,0,13.624,0Zm-6.812-8.9a18.553,18.553,0,0,1-18.532-18.532V40.711H150V61.906A18.552,18.552,0,0,1,131.466,80.438ZM108.979,57.532H105.63a1.22,1.22,0,0,1-1.219-1.219V49.921A1.22,1.22,0,0,1,105.63,48.7h3.349Zm44.973-8.83H157.3a1.22,1.22,0,0,1,1.219,1.219v6.392a1.22,1.22,0,0,1-1.219,1.219h-3.349Zm4.035-3.9a5.161,5.161,0,0,0-.686-.051h-3.349V40.712h4.035Zm-50.38-16.984a23.859,23.859,0,1,1,47.717,0v.952H107.607ZM96.154,36.6V32.874a.154.154,0,0,1,.153-.153h70.317a.154.154,0,0,1,.153.153V36.6a.154.154,0,0,1-.153.153H96.307A.153.153,0,0,1,96.154,36.6Zm12.825,4.108v4.035H105.63a5.168,5.168,0,0,0-.686.051V40.711ZM90.827,73.892V59.509a3.353,3.353,0,0,1,3.349-3.35h6.279v.153a5.179,5.179,0,0,0,5.174,5.174h3.349v.42a22.4,22.4,0,0,0,6.062,15.335H94.176A3.353,3.353,0,0,1,90.827,73.892Zm7.991,7.3h21.108c.255.153.512.3.773.445v6.134l-5.908,1.4a3.577,3.577,0,0,0-3.567-3.407h-4.8a3.579,3.579,0,0,0-3.575,3.575v2.653L100.7,92.5a18.255,18.255,0,0,0-1.886.557Zm-7.991,28.781A13.949,13.949,0,0,1,101.613,96.35l1.24-.293v17a1.978,1.978,0,0,0,3.955,0V89.72h4.037v41.325h-4.037v-8.762a1.978,1.978,0,0,0-3.955,0v8.762H90.827Zm81.277,0v21.067H160.079v-8.762a1.978,1.978,0,0,0-3.955,0v8.762h-4.037V89.72h4.037v23.335a1.978,1.978,0,1,0,3.955,0v-17l1.24.293A13.949,13.949,0,0,1,172.1,109.978Zm-7.991-16.92a18.245,18.245,0,0,0-1.885-.557l-2.149-.508V89.34a3.579,3.579,0,0,0-3.575-3.575h-4.8a3.577,3.577,0,0,0-3.567,3.407l-5.908-1.4V81.642q.391-.214.772-.444h8.619a1.978,1.978,0,0,0,0-3.955h-3.734a22.4,22.4,0,0,0,6.063-15.336v-.419H157.3a5.179,5.179,0,0,0,5.174-5.174v-.154h6.279a3.355,3.355,0,0,1,3.351,3.351V73.891a3.355,3.355,0,0,1-3.351,3.351h-7.9a1.978,1.978,0,1,0,0,3.955h3.262v11.86Z" transform="translate(0 0)"/>
    </g>
  </g>
</svg>
