<svg xmlns="http://www.w3.org/2000/svg" width="190" height="110" viewBox="0 0 190 110">
  <g id="Grupo_115745" data-name="Grupo 115745" transform="translate(-180 -9699)">
    <rect id="Rectángulo_36775" data-name="Rectángulo 36775" width="190" height="110" transform="translate(180 9699)" fill="none"/>
    <g id="Grupo_109187" data-name="Grupo 109187" transform="translate(-3442.279 10329.357)" opacity="0.3">
      <path id="Trazado_158283" data-name="Trazado 158283" d="M3677.784-530.075h0a16.354,16.354,0,0,0,23.129,0l67.216-67.214a16.357,16.357,0,0,0,0-23.129,16.355,16.355,0,0,0-23.129,0L3677.784-553.2A16.353,16.353,0,0,0,3677.784-530.075Z" transform="translate(14.296)" fill="#fc4b52"/>
      <path id="Trazado_158284" data-name="Trazado 158284" d="M3652.069-530.075h0a16.354,16.354,0,0,0,23.129,0l67.216-67.214a16.358,16.358,0,0,0,0-23.129,16.355,16.355,0,0,0-23.129,0L3652.069-553.2A16.354,16.354,0,0,0,3652.069-530.075Z" transform="translate(0)" fill="#feca2e"/>
    </g>
    <g id="equipo" transform="translate(210 9637.934)">
      <path id="Trazado_160002" data-name="Trazado 160002" d="M46.227,210.209c-.561-7.9-6.417-14.332-14.332-14.332s-13.771,6.436-14.332,14.332c-.334,4.707,0,12.284-2.047,16.379,0,0,2.047,4.095,9.6,6.148l13.6-.006c7.509-2.047,9.557-6.142,9.557-6.142C46.227,222.493,46.561,214.916,46.227,210.209Z" transform="translate(-11.553 -95.167)" fill="#afafaf"/>
      <path id="Trazado_160003" data-name="Trazado 160003" d="M29.848,210.982c-7.89-3.945-6.266-11.675-.645-14.067-6.521,1.272-11.144,7.1-11.64,14.067-.334,4.707,0,12.284-2.047,16.379,0,0,2.047,4.095,9.6,6.148l6.466,0Z" transform="translate(-11.553 -95.94)" fill="#636363"/>
      <path id="Trazado_160004" data-name="Trazado 160004" d="M40.958,321.22l-6.626-3.313a4.1,4.1,0,0,1-2.264-3.663V308.1H19.784v6.143a4.1,4.1,0,0,1-2.263,3.662L10.9,321.22a6.142,6.142,0,0,0-3.4,5.494V340.86H44.353V326.714A6.142,6.142,0,0,0,40.958,321.22Z" transform="translate(-5.584 -178.729)" fill="#e6af78"/>
      <path id="Trazado_160005" data-name="Trazado 160005" d="M44.354,353.164a6.143,6.143,0,0,0-3.4-5.494l-6.626-3.313a4.058,4.058,0,0,1-1.01-.732l-2.35,2.615a6.654,6.654,0,0,1-10.092,0l-2.35-2.616a4.071,4.071,0,0,1-1.009.732L10.9,347.67A6.142,6.142,0,0,0,7.5,353.164v14.147H44.354V353.164Z" transform="translate(-5.585 -205.179)" fill="#a7e446"/>
      <path id="Trazado_160006" data-name="Trazado 160006" d="M46.115,265.422h0a12.282,12.282,0,0,1-10.839-6.5,5.99,5.99,0,0,1,1.948-7.643,15.869,15.869,0,0,0,1.426-1.129,11.82,11.82,0,0,0,2.8-3.694,2.016,2.016,0,0,1,2.3-1.116,35.273,35.273,0,0,1,13.916,7.132,1.954,1.954,0,0,1,.694,1.621A12.285,12.285,0,0,1,46.115,265.422Z" transform="translate(-25.773 -131.954)" fill="#f0c087"/>
      <path id="Trazado_160007" data-name="Trazado 160007" d="M57.857,252.476a35.272,35.272,0,0,0-13.906-7.128,2.026,2.026,0,0,0-2.308,1.122,11.722,11.722,0,0,1-1.871,2.731v.007a10.961,10.961,0,0,1-.929.948,14.287,14.287,0,0,1-1.368,1.088,6.093,6.093,0,0,0-1.553,8.45,12.31,12.31,0,0,0,8.523,5.559,8.908,8.908,0,0,1-4.28-8.017v-1.582c.465-.343.933-.686,1.4-1.106A16.3,16.3,0,0,0,44.5,251.1,30.917,30.917,0,0,1,55.166,256.9c.388.34.932.821,2.059,1.878a12.32,12.32,0,0,0,1.328-4.682A1.956,1.956,0,0,0,57.857,252.476Z" transform="translate(-25.963 -131.958)" fill="#e6af78"/>
      <g id="Grupo_115743" data-name="Grupo 115743" transform="translate(1.916 144.294)">
        <path id="Trazado_160008" data-name="Trazado 160008" d="M8.748,366.522A6.128,6.128,0,0,0,7.5,370.213v14.147h8.19V374.043a4.1,4.1,0,0,0-1.537-3.2Z" transform="translate(-7.5 -366.522)" fill="#8cbf3b"/>
        <path id="Trazado_160009" data-name="Trazado 160009" d="M126.668,366.522a6.128,6.128,0,0,1,1.248,3.691v14.147h-8.19V374.043a4.1,4.1,0,0,1,1.537-3.2Z" transform="translate(-91.062 -366.522)" fill="#8cbf3b"/>
      </g>
      <path id="Trazado_160010" data-name="Trazado 160010" d="M368.226,210.036v1.437a16.376,16.376,0,0,0,.841,5.179l3.254,9.763h6.142V203.894h-4.095A6.142,6.142,0,0,0,368.226,210.036Z" transform="translate(-274.178 -101.136)" fill="#636363"/>
      <path id="Trazado_160011" data-name="Trazado 160011" d="M408.354,207.769l-3.622,12.678-16.379-14.332a4.1,4.1,0,0,1-4.095-4.095h0a6.142,6.142,0,0,1,6.142-6.142h18.427v8.516A12.272,12.272,0,0,1,408.354,207.769Z" transform="translate(-286.115 -95.168)" fill="#afafaf"/>
      <rect id="Rectángulo_40375" data-name="Rectángulo 40375" width="12.285" height="12.285" transform="translate(102.238 131.421)" fill="#e6af78"/>
      <path id="Trazado_160012" data-name="Trazado 160012" d="M380.671,338.387l-9.877-2.822-6.142,7.318-6.142-7.318-9.877,2.822a6.142,6.142,0,0,0-4.455,5.906v17.016h40.948V344.293A6.142,6.142,0,0,0,380.671,338.387Z" transform="translate(-256.272 -199.177)" fill="#fed866"/>
      <path id="Trazado_160013" data-name="Trazado 160013" d="M388.526,258.552h0a12.285,12.285,0,0,1-12.284-12.284h0a9.887,9.887,0,0,1,2.9-6.99l2.016-2.016a4.047,4.047,0,0,1,2.972-1.2c6.545.206,12.338,1.609,15.5,4.7a4.042,4.042,0,0,1,1.18,2.9v2.609A12.284,12.284,0,0,1,388.526,258.552Z" transform="translate(-280.146 -125.084)" fill="#f0c087"/>
      <path id="Trazado_160014" data-name="Trazado 160014" d="M382.383,246.267a4.087,4.087,0,0,1,4.34-4.089c4.133.264,10.266.954,14.029,2.765-.123-.864-.494-3.57-1.123-4.184-3.167-3.093-8.96-4.495-15.5-4.7h0a4.048,4.048,0,0,0-2.972,1.2l-2.016,2.016a9.885,9.885,0,0,0-2.9,6.99h0a12.281,12.281,0,0,0,8.881,11.8,12.184,12.184,0,0,1-2.738-7.7v-4.095Z" transform="translate(-280.145 -125.084)" fill="#e6af78"/>
      <path id="Trazado_160015" data-name="Trazado 160015" d="M472.435,365.6a6.142,6.142,0,0,1,1.8-4.343l5.27-5.27a6.117,6.117,0,0,1,1.12,3.513v17.016h-8.19Z" transform="translate(-351.771 -214.38)" fill="#feca2e"/>
      <path id="Trazado_160016" data-name="Trazado 160016" d="M183.946,330.364l-17.13-6.229-12.284,4.095-12.284-4.095-17.13,6.229a8.19,8.19,0,0,0-5.391,7.7V352.8h69.611V338.061A8.19,8.19,0,0,0,183.946,330.364Z" transform="translate(-89.147 -190.667)" fill="#fc7177"/>
      <path id="Trazado_160017" data-name="Trazado 160017" d="M354.258,356.812a8.18,8.18,0,0,1,2.2,5.58V377.13H344.177v-6.845a8.19,8.19,0,0,1,2.4-5.791Z" transform="translate(-256.271 -214.998)" fill="#fc4b52"/>
      <path id="Trazado_160018" data-name="Trazado 160018" d="M212.865,96.881V79.73a4.1,4.1,0,0,0-4.095-4.095H184.2a16.379,16.379,0,0,0-16.379,16.379v4.867a20.47,20.47,0,0,0,1.051,6.474l.681,2.045a6.145,6.145,0,0,1,.315,1.942v1.051h40.948v-1.051a6.145,6.145,0,0,1,.315-1.942l.681-2.045A20.47,20.47,0,0,0,212.865,96.881Z" transform="translate(-124.959 -5.636)" fill="#636363"/>
      <path id="Trazado_160019" data-name="Trazado 160019" d="M207.9,83.953a8.318,8.318,0,0,0,8.318,8.318h1.152l.556,16.123h22.733v-1.051a6.146,6.146,0,0,1,.315-1.942l.681-2.045a20.47,20.47,0,0,0,1.051-6.474V79.73a4.1,4.1,0,0,0-4.095-4.095H216.221A8.318,8.318,0,0,0,207.9,83.953Z" transform="translate(-154.803 -5.636)" fill="#afafaf"/>
      <rect id="Rectángulo_40376" data-name="Rectángulo 40376" width="24.568" height="18.425" transform="translate(53.1 119.136)" fill="#e6af78"/>
      <path id="Trazado_160020" data-name="Trazado 160020" d="M207.9,277.288a26.507,26.507,0,0,0,24.569,0v-9.266H207.9v9.266Z" transform="translate(-154.803 -148.885)" fill="#d29b6e"/>
      <g id="Grupo_115744" data-name="Grupo 115744" transform="translate(49.006 130.06)">
        <path id="Trazado_160021" data-name="Trazado 160021" d="M208.25,318.292l-6.53,6.53a2.048,2.048,0,0,1-3.079-.21l-6.771-8.921,1.771-3.732a2.047,2.047,0,0,1,2.924-.865Z" transform="translate(-191.871 -310.788)" fill="#fc4b52"/>
        <path id="Trazado_160022" data-name="Trazado 160022" d="M256,318.292l6.53,6.53a2.048,2.048,0,0,0,3.079-.21l6.771-8.921-1.771-3.732a2.047,2.047,0,0,0-2.924-.865Z" transform="translate(-239.621 -310.788)" fill="#fc4b52"/>
      </g>
      <path id="Trazado_160023" data-name="Trazado 160023" d="M196.313,179.306h0a20.474,20.474,0,0,1-20.474-20.474v-2.047l3.407-2.271a6.142,6.142,0,0,0,2.735-5.111v-6.95s16.379-6.142,28.664,4.095V149.4a6.144,6.144,0,0,0,2.735,5.112l3.407,2.271v2.047A20.474,20.474,0,0,1,196.313,179.306Z" transform="translate(-130.928 -54.028)" fill="#f0c087"/>
      <path id="Trazado_160024" data-name="Trazado 160024" d="M121.93,356.812a8.18,8.18,0,0,0-2.2,5.58V377.13H132.01v-6.845a8.19,8.19,0,0,0-2.4-5.791Z" transform="translate(-89.147 -214.998)" fill="#fc4b52"/>
      <path id="Trazado_160025" data-name="Trazado 160025" d="M191.725,147.374c4.452-.558,12.245-.879,18.92,2.027v-2.854c-12.284-10.237-28.664-4.095-28.664-4.095v6.95a6.142,6.142,0,0,1-2.735,5.111l-3.407,2.271v2.047a20.467,20.467,0,0,0,18,20.31h0a20.387,20.387,0,0,1-5.716-14.168V151.441A4.1,4.1,0,0,1,191.725,147.374Z" transform="translate(-130.928 -54.027)" fill="#e6af78"/>
      <path id="Trazado_160026" data-name="Trazado 160026" d="M406.1,234.126a1.916,1.916,0,0,0,1.713-3.427c-4.45-2.225-12.793-2.25-13.146-2.25a1.916,1.916,0,1,0,0,3.831C396.819,232.28,403.07,232.612,406.1,234.126Z" transform="translate(-292.439 -119.42)"/>
      <path id="Trazado_160027" data-name="Trazado 160027" d="M124.924,138.553l-7.911-2.26a.8.8,0,0,1-.58-.769v-2.641a14.4,14.4,0,0,0,1.832-1.5,14.092,14.092,0,0,0,4.313-10.195v-3.644l.765-1.53a12.22,12.22,0,0,0,1.283-5.437V100.7a1.916,1.916,0,0,0-1.916-1.916H104.276A12.17,12.17,0,0,0,92.12,110.945v.114a10.16,10.16,0,0,0,1.067,4.521l.981,1.962v3.129a14.946,14.946,0,0,0,6.145,12.085v2.768c0,.427,0,.6-1.582,1.056l-3.86,1.1L83.7,133.621a1.913,1.913,0,0,0-.522-1.467l-3.568-3.749v-6.293c.377-.311.749-.63,1.109-.968A22.482,22.482,0,0,0,87.806,104.8V99.774a22.143,22.143,0,0,0,2.048-9.311V69.982a1.916,1.916,0,0,0-1.916-1.916H59.264a18.322,18.322,0,0,0-18.3,18.3v4.1a22.142,22.142,0,0,0,2.048,9.311V104.1A23.407,23.407,0,0,0,51.2,121.964v6.441l-3.568,3.749a1.913,1.913,0,0,0-.522,1.467l-11.786,4.286a10.045,10.045,0,0,0-2.368,1.241l-1.851-.925c5.509-2.4,7.254-5.771,7.338-5.938a1.915,1.915,0,0,0,0-1.713c-1.381-2.762-1.548-7.824-1.683-11.892-.045-1.354-.087-2.634-.168-3.773-.653-9.188-7.638-16.117-16.248-16.117S4.754,105.717,4.1,114.906c-.081,1.139-.123,2.419-.168,3.773-.134,4.067-.3,9.129-1.683,11.891a1.915,1.915,0,0,0,0,1.713c.084.168,1.825,3.533,7.346,5.934l-5.141,2.57A8.018,8.018,0,0,0,0,148v14.152a1.916,1.916,0,1,0,3.831,0V148a4.206,4.206,0,0,1,2.338-3.783l6.4-3.2L14.8,143.13a8.056,8.056,0,0,0,11.1,0l2.226-2.116,2.087,1.044a10.087,10.087,0,0,0-1.541,5.348V162.15a1.916,1.916,0,1,0,3.831,0V147.406a6.3,6.3,0,0,1,4.132-5.9l12.426-4.518,5.173,7.76a3.949,3.949,0,0,0,2.907,1.746q.2.02.4.019a3.948,3.948,0,0,0,2.8-1.161l3.156-3.156V162.15a1.916,1.916,0,0,0,3.831,0V142.2l3.156,3.156a3.947,3.947,0,0,0,2.8,1.161q.2,0,.395-.019a3.949,3.949,0,0,0,2.908-1.746l5.173-7.759,12.426,4.518a6.3,6.3,0,0,1,4.132,5.9V162.15a1.916,1.916,0,1,0,3.831,0V147.407A10.127,10.127,0,0,0,99.31,140.4l.473-.135a10.506,10.506,0,0,0,1.783-.644l4.891,4.891v17.64a1.916,1.916,0,1,0,3.831,0V144.51l4.857-4.857a4.556,4.556,0,0,0,.815.324l7.912,2.26a4.247,4.247,0,0,1,3.067,4.066V162.15a1.916,1.916,0,0,0,3.831,0V146.3A8.1,8.1,0,0,0,124.924,138.553Zm-96.515-3.377v-2.285a14.169,14.169,0,0,0,5.057-6.244,21.088,21.088,0,0,0,1.091,4.576A13.839,13.839,0,0,1,28.409,135.176Zm-20.486-20a14.222,14.222,0,0,1,3.873-8.931,11.9,11.9,0,0,1,17.108,0,14.222,14.222,0,0,1,3.873,8.931c.076,1.067.117,2.311.16,3.628l.011.342a17.212,17.212,0,0,0-9.462-6.914,24.042,24.042,0,0,0-7.286-1.154,1.916,1.916,0,0,0-1.326.585l-3.456,3.584a1.916,1.916,0,0,0,2.758,2.659l2.876-2.982c2.477.121,10.445,1.048,13.544,7.871a10.372,10.372,0,0,1-20.619-1.61,1.9,1.9,0,0,0-2.23-1.887c.006-.165.011-.33.017-.493C7.806,117.488,7.847,116.244,7.923,115.177ZM6.141,131.222a21.115,21.115,0,0,0,1.092-4.587,14.284,14.284,0,0,0,5.056,6.238v2.3A13.771,13.771,0,0,1,6.141,131.222Zm11.295,9.131-1.781-1.693a3.963,3.963,0,0,0,.466-1.871v-2.042a14.245,14.245,0,0,0,8.458,0v2.04a3.963,3.963,0,0,0,.466,1.871l-1.781,1.693A4.227,4.227,0,0,1,17.436,140.353ZM46.843,104.1V99.346a1.916,1.916,0,0,0-.191-.833,18.374,18.374,0,0,1-1.858-8.05v-4.1A14.486,14.486,0,0,1,59.264,71.9H86.023V90.463a18.374,18.374,0,0,1-1.858,8.05,1.916,1.916,0,0,0-.191.833V104.8A18.39,18.39,0,0,1,78.1,118.349a19.069,19.069,0,0,1-1.471,1.245l-.033.024a18.419,18.419,0,0,1-12.43,3.708C54.454,122.7,46.843,114.252,46.843,104.1ZM63.922,127.15q.757.049,1.507.049a22.188,22.188,0,0,0,10.354-2.537v3.5l-10.373,7.091L55.036,128.16v-3.576A21.568,21.568,0,0,0,63.922,127.15Zm-6.293,15.493a.12.12,0,0,1-.107.038.122.122,0,0,1-.1-.059l-5.957-8.936,1.917-2.014,9.038,6.178Zm15.765-.02a.122.122,0,0,1-.1.058.118.118,0,0,1-.107-.038L68.4,137.85l9.038-6.178,1.917,2.014ZM98,120.671V117.09a1.914,1.914,0,0,0-.2-.857l-1.183-2.367a6.31,6.31,0,0,1-.663-2.807v-.114a8.335,8.335,0,0,1,8.325-8.325h16.518v7.956a8.37,8.37,0,0,1-.879,3.723l-.967,1.934a1.915,1.915,0,0,0-.2.857v4.1a10.374,10.374,0,0,1-10.694,10.369C102.509,131.388,98,126.506,98,120.671Zm9.938,14.713c.148,0,.294.007.441.007a14.229,14.229,0,0,0,4.223-.639v.771a4.579,4.579,0,0,0,.138,1.116l-4.368,4.367-4.347-4.347a5.255,5.255,0,0,0,.119-1.138v-.808A13.432,13.432,0,0,0,107.937,135.384Z"/>
      <path id="Trazado_160028" data-name="Trazado 160028" d="M466.839,380.814a1.916,1.916,0,0,0-1.916,1.916v12.289a1.916,1.916,0,0,0,3.831,0V382.73A1.916,1.916,0,0,0,466.839,380.814Z" transform="translate(-346.177 -232.869)"/>
      <path id="Trazado_160029" data-name="Trazado 160029" d="M33.993,390.728a1.916,1.916,0,0,0-1.916,1.916V402.4a1.916,1.916,0,1,0,3.831,0v-9.757A1.916,1.916,0,0,0,33.993,390.728Z" transform="translate(-23.884 -240.251)"/>
      <path id="Trazado_160030" data-name="Trazado 160030" d="M196.291,140.881a.127.127,0,0,1,.1-.13,60.518,60.518,0,0,1,12.445-.608c5.974.4,10.3,1.9,12.86,4.457a1.915,1.915,0,0,0,2.709-2.709c-7.245-7.245-22.4-5.86-28.585-4.928a3.933,3.933,0,0,0-3.36,3.918v4.413a1.916,1.916,0,1,0,3.831,0v-4.413Z" transform="translate(-143.304 -50.734)"/>
      <path id="Trazado_160031" data-name="Trazado 160031" d="M162.3,396.853a1.916,1.916,0,0,0-1.916,1.916v8.193a1.916,1.916,0,0,0,3.831,0v-8.193A1.916,1.916,0,0,0,162.3,396.853Z" transform="translate(-119.42 -244.812)"/>
      <path id="Trazado_160032" data-name="Trazado 160032" d="M338.722,396.853a1.916,1.916,0,0,0-1.916,1.916v8.193a1.916,1.916,0,0,0,3.831,0v-8.193A1.916,1.916,0,0,0,338.722,396.853Z" transform="translate(-250.783 -244.812)"/>
    </g>
  </g>
</svg>
