<svg xmlns="http://www.w3.org/2000/svg" width="190" height="110" viewBox="0 0 190 110">
  <g id="Grupo_109208" data-name="Grupo 109208" transform="translate(-180 -7290)">
    <rect id="Rectángulo_36775" data-name="Rectángulo 36775" width="190" height="110" transform="translate(180 7290)" fill="none"/>
    <g id="Grupo_109187" data-name="Grupo 109187" transform="translate(-3442.279 7920.357)" opacity="0.3">
      <path id="Trazado_158283" data-name="Trazado 158283" d="M3677.784-530.075h0a16.354,16.354,0,0,0,23.129,0l67.216-67.214a16.357,16.357,0,0,0,0-23.129,16.355,16.355,0,0,0-23.129,0L3677.784-553.2A16.353,16.353,0,0,0,3677.784-530.075Z" transform="translate(14.296)" fill="#fc4b52"/>
      <path id="Trazado_158284" data-name="Trazado 158284" d="M3652.069-530.075h0a16.354,16.354,0,0,0,23.129,0l67.216-67.214a16.358,16.358,0,0,0,0-23.129,16.355,16.355,0,0,0-23.129,0L3652.069-553.2A16.354,16.354,0,0,0,3652.069-530.075Z" transform="translate(0)" fill="#feca2e"/>
    </g>
    <g id="segmentacion" transform="translate(224 7295)">
      <g id="Grupo_109206" data-name="Grupo 109206" transform="translate(2.597 2.597)">
        <g id="Grupo_109188" data-name="Grupo 109188" transform="translate(44.406 44.71)">
          <path id="Trazado_158285" data-name="Trazado 158285" d="M31.71,30H34.9l1.9,11.145v.016l-1.309,2.379a18.762,18.762,0,0,0-4.774-.75l-.91-1.629v-.016Z" transform="translate(-29.81 -30)" fill="#fc4b52"/>
        </g>
        <g id="Grupo_109189" data-name="Grupo 109189" transform="translate(49.5 39.919)">
          <path id="Trazado_158286" data-name="Trazado 158286" d="M42.9,28.277l-8,14.658L33,31.79,37.79,27Z" transform="translate(-33 -27)" fill="#fee18c"/>
        </g>
        <g id="Grupo_109190" data-name="Grupo 109190" transform="translate(36.406 39.919)">
          <path id="Trazado_158287" data-name="Trazado 158287" d="M34.7,31.79,32.8,42.936l-8-14.658L29.91,27Z" transform="translate(-24.8 -27)" fill="#fee18c"/>
        </g>
        <g id="Grupo_109191" data-name="Grupo 109191" transform="translate(50.091 41.197)">
          <path id="Trazado_158288" data-name="Trazado 158288" d="M53.553,48.877H40.667a19.007,19.007,0,0,0-7.3-4.024l1.309-2.379v-.016l8-14.658,3.673.91a11.9,11.9,0,0,1,2.22.814,15.942,15.942,0,0,0,4.982,19.353Z" transform="translate(-33.37 -27.8)" fill="#a7e446"/>
        </g>
        <g id="Grupo_109192" data-name="Grupo 109192" transform="translate(25.548 41.197)">
          <path id="Trazado_158289" data-name="Trazado 158289" d="M36.858,42.474l.91,1.629c-.208-.016-.4-.016-.607-.016a19.069,19.069,0,0,0-12.678,4.79H18A15.953,15.953,0,0,0,24.387,36.1a15.843,15.843,0,0,0-1.421-6.579,11.9,11.9,0,0,1,2.22-.814l3.673-.91,8,14.658Z" transform="translate(-18 -27.8)" fill="#a7e446"/>
        </g>
        <g id="Grupo_109193" data-name="Grupo 109193" transform="translate(79.839 49.5)">
          <path id="Trazado_158290" data-name="Trazado 158290" d="M52,33H67.968A15.974,15.974,0,0,1,52,48.968Z" transform="translate(-52 -33)" fill="#bae477"/>
        </g>
        <g id="Grupo_109194" data-name="Grupo 109194" transform="translate(72.078 33.532)">
          <path id="Trazado_158291" data-name="Trazado 158291" d="M70.868,38.968H54.9L47.14,25.012A15.949,15.949,0,0,1,54.9,23a15.483,15.483,0,0,1,4.327.607A15.955,15.955,0,0,1,70.868,38.968Z" transform="translate(-47.14 -23)" fill="#fc7177"/>
        </g>
        <g id="Grupo_109195" data-name="Grupo 109195" transform="translate(63.871 35.544)">
          <path id="Trazado_158292" data-name="Trazado 158292" d="M57.968,38.216V54.184A15.962,15.962,0,0,1,43.421,31.637a16.091,16.091,0,0,1,6.786-7.377Z" transform="translate(-42 -24.26)" fill="#fed866"/>
        </g>
        <g id="Grupo_109196" data-name="Grupo 109196" transform="translate(25.548 57.484)">
          <path id="Trazado_158293" data-name="Trazado 158293" d="M49.84,42.79A19.173,19.173,0,1,1,37.161,38c.208,0,.4,0,.607.016a18.761,18.761,0,0,1,4.774.75A19.007,19.007,0,0,1,49.84,42.79Z" transform="translate(-18 -38)" fill="#d2e1f1"/>
        </g>
        <g id="Grupo_109197" data-name="Grupo 109197" transform="translate(31.935 63.871)">
          <path id="Trazado_158294" data-name="Trazado 158294" d="M47.548,54.774A12.774,12.774,0,1,1,34.774,42,12.771,12.771,0,0,1,47.548,54.774Z" transform="translate(-22 -42)" fill="#fff"/>
        </g>
        <g id="Grupo_109198" data-name="Grupo 109198" transform="translate(79.839 70.258)">
          <path id="Trazado_158295" data-name="Trazado 158295" d="M52,52.387,56.79,46h9.581l-3.194,6.387,3.194,6.387H56.79Z" transform="translate(-52 -46)" fill="#fc4b52"/>
        </g>
        <g id="Grupo_109199" data-name="Grupo 109199" transform="translate(37.543 69.775)">
          <circle id="Elipse_5080" data-name="Elipse 5080" cx="6.331" cy="6.331" r="6.331" transform="translate(0 0)" fill="#fc4b52"/>
        </g>
        <g id="Grupo_109200" data-name="Grupo 109200" transform="translate(0 33.532)">
          <path id="Trazado_158296" data-name="Trazado 158296" d="M32.514,32.389a15.967,15.967,0,1,1-15.473-9.357c.3-.016.607-.032.926-.032a15.961,15.961,0,0,1,14.547,9.389Z" transform="translate(-2 -23)" fill="#feca2e"/>
        </g>
        <g id="Grupo_109201" data-name="Grupo 109201" transform="translate(30.339)">
          <path id="Trazado_158297" data-name="Trazado 158297" d="M49.742,17.968H44.105a30.138,30.138,0,0,1-13.525-3.194,5.77,5.77,0,0,0-3.194,5.174v1.214h-1.6A4.787,4.787,0,0,0,22.1,22.886l-.671-2.044A8.184,8.184,0,0,1,21,18.223a7.3,7.3,0,0,1,.112-1.325,8.261,8.261,0,0,1,2.315-4.551l.766-.766A9.6,9.6,0,0,1,33.774,2H44.169a5.568,5.568,0,0,1,5.573,5.573,6.24,6.24,0,0,1-.048.782l1.261.639a9.346,9.346,0,0,1,4.9,6.1,9.685,9.685,0,0,1,.271,2.267,9.318,9.318,0,0,1-.99,4.184l-.479.958a4.765,4.765,0,0,0-3.321-1.341h-1.6Z" transform="translate(-21 -2)" fill="#727997"/>
        </g>
        <g id="Grupo_109202" data-name="Grupo 109202" transform="translate(58.618 19.161)">
          <path id="Trazado_158298" data-name="Trazado 158298" d="M44.091,15.341a4.791,4.791,0,0,1-3.321,8.239H38.71a11.031,11.031,0,0,0,.463-3.194V14h1.6a4.765,4.765,0,0,1,3.321,1.341Z" transform="translate(-38.71 -14)" fill="#f0d0b4"/>
        </g>
        <g id="Grupo_109203" data-name="Grupo 109203" transform="translate(41.516 35.576)">
          <path id="Trazado_158299" data-name="Trazado 158299" d="M29.453,24.28a11.162,11.162,0,0,0,9.868,0l1.453,4.343-4.79,4.79H32.79L28,28.623Z" transform="translate(-28 -24.28)" fill="#f0d0b4"/>
        </g>
        <g id="Grupo_109204" data-name="Grupo 109204" transform="translate(36.726 12.774)">
          <path id="Trazado_158300" data-name="Trazado 158300" d="M47.355,16.387v6.387a11.145,11.145,0,0,1-3.273,7.9,11.183,11.183,0,0,1-18.618-4.71A11.031,11.031,0,0,1,25,22.774v-7.6A5.77,5.77,0,0,1,28.194,10a30.138,30.138,0,0,0,13.525,3.194h5.637Z" transform="translate(-25 -10)" fill="#f0d0b4"/>
        </g>
        <g id="Grupo_109205" data-name="Grupo 109205" transform="translate(30.339 19.161)">
          <path id="Trazado_158301" data-name="Trazado 158301" d="M27.85,23.581H25.79a4.79,4.79,0,1,1,0-9.581h1.6v6.387A11.031,11.031,0,0,0,27.85,23.581Z" transform="translate(-21 -14)" fill="#f0d0b4"/>
        </g>
      </g>
      <g id="Grupo_109207" data-name="Grupo 109207" transform="translate(1 1)">
        <path id="Trazado_158302" data-name="Trazado 158302" d="M16.393,29.194h-.409V26H12.79v3.194h-.409A4.381,4.381,0,0,0,11,37.731l5.774,1.924a1.187,1.187,0,0,1-.377,2.312H12.38a1.187,1.187,0,0,1-1.186-1.188V38.774H8V40.78a4.387,4.387,0,0,0,4.382,4.382h.409v3.194h3.194V45.161h.409a4.381,4.381,0,0,0,1.386-8.538L12,34.7a1.187,1.187,0,0,1,.377-2.312h4.013a1.187,1.187,0,0,1,1.186,1.188v.409h3.194v-.409a4.387,4.387,0,0,0-4.382-4.382Z" transform="translate(3.177 13.919)"/>
        <path id="Trazado_158303" data-name="Trazado 158303" d="M86.427,71.258l-4.79,6.387H67.983a20.633,20.633,0,0,0-4.35-11.177h8.734A17.552,17.552,0,1,0,87.949,35.431,38.579,38.579,0,0,0,69.122,14.593a10.867,10.867,0,0,0-5.509-6.429l-.354-.177A7.165,7.165,0,0,0,56.109,1H45.71A11.191,11.191,0,0,0,34.553,11.5l-.311.313a9.831,9.831,0,0,0-2.63,4.731A38.509,38.509,0,0,0,16.543,34.66,17.557,17.557,0,1,0,28.632,66.468h2.347a20.74,20.74,0,1,0,37,14.371H81.637l4.79,6.387H99.39L95.4,79.242l3.992-7.984ZM34.061,63.274H32.1a17.449,17.449,0,0,0,3.069-16.846c.182-.057.362-.121.549-.168l2.472-.618,7.063,12.945a20.657,20.657,0,0,0-11.195,4.687ZM54.8,53.657l-.988-5.806,3.567-3.567,2.229.557ZM50.5,37.726a9.59,9.59,0,0,1-9.581-9.581V20.538A4.156,4.156,0,0,1,42.6,17.185a32.01,32.01,0,0,0,13.442,2.976h4.037v7.984A9.59,9.59,0,0,1,50.5,37.726Zm0,3.194a12.744,12.744,0,0,0,3.96-.636l.6,1.8L51.436,45.71H49.564L45.94,42.085l.6-1.8a12.744,12.744,0,0,0,3.96.636Zm-6.877,3.364,3.567,3.567-.988,5.8-4.808-8.814Zm5.257,14.28-.208-.382L50.251,48.9h.5l1.581,9.28-.45.824A20.648,20.648,0,0,0,48.879,58.564ZM62.808,45.643l2.472.618c.185.046.366.11.548.168A17.449,17.449,0,0,0,68.9,63.274H60.552a20.763,20.763,0,0,0-5.562-3.3ZM74.113,40.4,80.839,52.51V66.374A14.351,14.351,0,0,1,74.113,40.4Zm9.919,25.97V53.694h12.68A14.392,14.392,0,0,1,84.032,66.374ZM96.712,50.5H83.374L76.9,38.839A14.361,14.361,0,0,1,96.712,50.5ZM84.17,34.62c-.57-.056-1.148-.088-1.734-.088a17.568,17.568,0,0,0-15.3,8.961c-.358-.123-.719-.24-1.086-.331l-7.93-1.982-.76-2.28a12.84,12.84,0,0,0,4.969-5.964h.942a6.371,6.371,0,0,0,5.215-10.053l.016-.034a10.981,10.981,0,0,0,1.126-4.362A35.436,35.436,0,0,1,84.17,34.62Zm-20.9-6.475v-4.79a3.194,3.194,0,0,1,0,6.387h-.11A12.85,12.85,0,0,0,63.274,28.145ZM36.5,14.066l1.228-1.228v-.661A7.993,7.993,0,0,1,45.71,4.194h10.4a3.971,3.971,0,0,1,1.257,7.738l-.984.327,1.009,3.029.984-.327a7.145,7.145,0,0,0,4.19-3.714,7.7,7.7,0,0,1,3.9,6.708,7.775,7.775,0,0,1-.535,2.8,6.333,6.333,0,0,0-2.659-.6V16.968h-7.23A28.779,28.779,0,0,1,43.23,13.942l-.714-.356-.714.358a7.316,7.316,0,0,0-4.051,6.218h-.026a6.3,6.3,0,0,0-2.865.711A6.684,6.684,0,0,1,36.5,14.066Zm1.228,9.288v4.79a12.85,12.85,0,0,0,.11,1.6h-.11a3.194,3.194,0,1,1,0-6.387Zm-6.245-2.893a9.833,9.833,0,0,0,.366,1.485l.436,1.306a6.329,6.329,0,0,0-.944,3.3,6.394,6.394,0,0,0,6.387,6.387h.941A12.84,12.84,0,0,0,43.635,38.9l-.76,2.28-7.93,1.982c-.367.093-.728.208-1.086.331a17.571,17.571,0,0,0-13.838-8.886A35.391,35.391,0,0,1,31.481,20.461ZM4.194,52.1A14.371,14.371,0,1,1,18.565,66.468,14.389,14.389,0,0,1,4.194,52.1Zm43.113,44.71A17.565,17.565,0,1,1,64.79,77.645H61.583a14.371,14.371,0,1,0,0,3.194H64.79A17.581,17.581,0,0,1,47.306,96.806Zm7.823-19.161a7.984,7.984,0,1,0,0,3.194h3.227a11.177,11.177,0,1,1,0-3.194ZM51.8,80.839a4.79,4.79,0,1,1,0-3.194H45.71v3.194Zm42.42,3.194h-6.2l-2.4-3.194h3.194V77.645H85.629l2.4-3.194h6.2l-2.4,4.79Z" transform="translate(-1 -1)"/>
      </g>
    </g>
  </g>
</svg>
