<svg xmlns="http://www.w3.org/2000/svg" width="110" height="110" viewBox="0 0 110 110">
  <g id="Grupo_115740" data-name="Grupo 115740" transform="translate(-543 -9460)">
    <rect id="Rectángulo_40374" data-name="Rectángulo 40374" width="110" height="110" transform="translate(543 9460)" fill="none"/>
    <g id="vendedor" transform="translate(559 9460)">
      <path id="Trazado_159976" data-name="Trazado 159976" d="M160.417,7.483A25.948,25.948,0,0,0,134.5,33.265v9.771h52.215V28.419c0-9.984-6.219-12.284-6.219-12.284-7.734-9.419-20.065-8.652-20.065-8.652" transform="translate(-121.548 -5.863)" fill="#727997"/>
      <path id="Trazado_159977" data-name="Trazado 159977" d="M163.935,7.607c-15.2-1.708-28.219,9.136-29.362,23.571-.148,1.85-.057,2.045-.085,11.828h6.219V33.235A25.925,25.925,0,0,1,163.935,7.607Z" transform="translate(-121.539 -5.833)" fill="#575c73"/>
      <g id="Grupo_115734" data-name="Grupo 115734" transform="translate(12.339 34.19)">
        <path id="Trazado_159978" data-name="Trazado 159978" d="M138.486,159.46c-3.275-1.167-6.829,1-6.829,4.169s3.554,5.336,6.829,4.169Z" transform="translate(-131.657 -159.14)" fill="#ad7042"/>
        <path id="Trazado_159979" data-name="Trazado 159979" d="M348.587,159.46c3.275-1.167,6.829,1,6.829,4.169s-3.554,5.336-6.829,4.169Z" transform="translate(-301.981 -159.14)" fill="#ad7042"/>
      </g>
      <g id="Grupo_115735" data-name="Grupo 115735" transform="translate(12.327 36.778)">
        <path id="Trazado_159980" data-name="Trazado 159980" d="M132.082,171.185c-1.9,3.646,2.147,7.572,6.359,6.071v-3.8A5.22,5.22,0,0,1,132.082,171.185Z" transform="translate(-131.6 -171.185)" fill="#a3673e"/>
        <path id="Trazado_159981" data-name="Trazado 159981" d="M348.587,173.454v3.8c4.219,1.5,8.258-2.427,6.359-6.071A5.22,5.22,0,0,1,348.587,173.454Z" transform="translate(-301.969 -171.186)" fill="#a3673e"/>
      </g>
      <path id="Trazado_159982" data-name="Trazado 159982" d="M156.141,318.864c-4.618-23.19-4.261-21.687-4.671-22.777a8.877,8.877,0,0,0-4.806-5.008,14.066,14.066,0,0,0-1.8-.6L132.994,286.3l-5.039-4.271v-4.292a19.92,19.92,0,0,1-17.564,0V282.2l-5.181,4.155-2.67.918h-.006v0l-9.054,3.208-1.191.351a9.074,9.074,0,0,0-5.177,4.689c-.654,1.432-.441.922-3.966,18.624-1.318,6.62-1.524,7.13-1.376,8.487.453,4.212,4.781,3.769,4.9,3.821h65.006c.129-.044,4.822.394,4.934-4.357C156.614,321.976,156.431,320.464,156.141,318.864Z" transform="translate(-80.117 -218.063)" fill="#dd9a5e"/>
      <g id="Grupo_115736" data-name="Grupo 115736" transform="translate(25.093 63.962)">
        <path id="Trazado_159983" data-name="Trazado 159983" d="M264.531,297.715l5.039,4.271-6.245,8.993a2.181,2.181,0,0,1-3.434.04l-4.213-4.685Z" transform="translate(-241.787 -297.715)" fill="#dadada"/>
        <path id="Trazado_159984" data-name="Trazado 159984" d="M196.2,298.51l-5.177,4.155,6.208,8.939a2.181,2.181,0,0,0,3.434.04l4.249-4.685Z" transform="translate(-191.021 -298.339)" fill="#dadada"/>
      </g>
      <path id="Trazado_159985" data-name="Trazado 159985" d="M232.693,277.736a19.928,19.928,0,0,1-17.564,0V282.2l0,0,8.712,8.446,8.853-8.619Z" transform="translate(-184.855 -218.065)" fill="#ad7042"/>
      <path id="Trazado_159986" data-name="Trazado 159986" d="M220.5,287.408v-7.927a19.482,19.482,0,0,1-5.37-1.747V282.2l0,0Z" transform="translate(-184.855 -218.065)" fill="#a3673e"/>
      <path id="Trazado_159987" data-name="Trazado 159987" d="M156.142,350.162c-4.628-23.243-4.26-21.685-4.671-22.777a8.874,8.874,0,0,0-4.806-5.008,14.2,14.2,0,0,0-1.8-.6L133,317.594h0l-6.245,8.993a2.181,2.181,0,0,1-3.434.04l-4.213-4.685-4.249,4.685a2.181,2.181,0,0,1-3.434-.039l-6.208-8.939-2.67.918h-.006v0l-9.054,3.208-1.191.351a9.073,9.073,0,0,0-5.177,4.689c-.652,1.427-.419.81-3.966,18.624-1.319,6.627-1.523,7.132-1.376,8.487.453,4.212,4.781,3.769,4.9,3.821h65.006c.151-.066,4.821.426,4.935-4.357A13.857,13.857,0,0,0,156.142,350.162Z" transform="translate(-80.118 -249.361)" fill="#ededed"/>
      <path id="Trazado_159988" data-name="Trazado 159988" d="M87.115,365.538c.024-.98,4.755-26.552,4.815-26.773a8.713,8.713,0,0,1,3.715-5.262c-2.884,1.022-3.37,1.122-3.349,1.116a9.257,9.257,0,0,0-4.638,3.689c-1.182,1.886-.8,1.018-5.445,24.345a11.735,11.735,0,0,0-.436,3.766c.453,4.212,4.781,3.769,4.9,3.821h5.372C88.612,370.241,87.045,368.433,87.115,365.538Z" transform="translate(-80.123 -261.853)" fill="#dadada"/>
      <path id="Trazado_159989" data-name="Trazado 159989" d="M239.016,337.829l-4.559,5.021,2.238,3.1h4.76l2.143-3.078Z" transform="translate(-200.032 -265.248)" fill="#fc4b52"/>
      <path id="Trazado_159990" data-name="Trazado 159990" d="M176.631,338.82a44.8,44.8,0,0,1,5.064-16.195,10.05,10.05,0,0,0-1.114-.5l-1.191-.351L167.518,317.6h0s-2.406,13.355-11.032,20.712a4.3,4.3,0,0,1-5.575,0c-8.65-7.348-11.177-20.663-11.177-20.663l-2.67.918h-.006v0l-9.054,3.208-1.191.351a10.088,10.088,0,0,0-1.114.5,44.8,44.8,0,0,1,5.064,16.195v18.93h45.867C176.631,355.739,176.631,340.617,176.631,338.82Z" transform="translate(-114.641 -249.362)" fill="#a7e446"/>
      <path id="Trazado_159991" data-name="Trazado 159991" d="M130.763,369.5h5.5V349.907s-1.046-9.478-5.526-17.347c-3.641,1.29-3.942,1.325-3.92,1.318a10.056,10.056,0,0,0-1.114.5,44.8,44.8,0,0,1,5.064,16.194C130.763,352.369,130.763,367.489,130.763,369.5Z" transform="translate(-114.639 -261.112)" fill="#8cbf3b"/>
      <g id="Grupo_115737" data-name="Grupo 115737" transform="translate(34.425 72.581)">
        <path id="Trazado_159992" data-name="Trazado 159992" d="M237.045,383.9a4.3,4.3,0,0,0,5.575,0c.565-.482,1.1-.991,1.616-1.519l-2.038-6.72h-4.76l-2.034,6.707C235.925,382.9,236.471,383.41,237.045,383.9Z" transform="translate(-235.201 -367.528)" fill="#fc4b52"/>
        <path id="Trazado_159993" data-name="Trazado 159993" d="M241.379,340.459h0l-2.362-2.627-4.559,5.021,2.238,3.1h4.745l-1.717-2.383a1.1,1.1,0,0,1,.078-1.381Z" transform="translate(-234.457 -337.832)" fill="#d94047"/>
      </g>
      <path id="Trazado_159994" data-name="Trazado 159994" d="M242.184,375.653h-4.745L235.4,382.36c1.459,1.5,2.425,2.389,4.022,2.539Z" transform="translate(-200.775 -294.946)" fill="#d94047"/>
      <circle id="Elipse_5104" data-name="Elipse 5104" cx="2.802" cy="2.802" r="2.802" transform="translate(48.067 88.432)" fill="#fc4b52"/>
      <path id="Trazado_159995" data-name="Trazado 159995" d="M300.742,411.625a2.8,2.8,0,1,0,2.423,4.2A2.8,2.8,0,0,1,300.742,411.625Z" transform="translate(-249.873 -323.19)" fill="#d94047"/>
      <path id="Trazado_159996" data-name="Trazado 159996" d="M294.172,447H285.38a1.409,1.409,0,0,1-1.409-1.409V439.1a1.409,1.409,0,0,1,1.409-1.409h8.792a1.409,1.409,0,0,1,1.409,1.409v6.488A1.409,1.409,0,0,1,294.172,447Z" transform="translate(-238.908 -343.657)" fill="#e6e7e8"/>
      <path id="Trazado_159997" data-name="Trazado 159997" d="M289.777,445.589V439.1a1.409,1.409,0,0,1,1.409-1.409h-5.805a1.409,1.409,0,0,0-1.409,1.409v6.488A1.409,1.409,0,0,0,285.381,447h5.805A1.409,1.409,0,0,1,289.777,445.589Z" transform="translate(-238.909 -343.657)" fill="#dadada"/>
      <path id="Trazado_159998" data-name="Trazado 159998" d="M202.325,103.217a.987.987,0,0,1,.9.979v15.243a19.871,19.871,0,0,1-10.98,17.782c-12.7,6.4-28.8-2.543-28.8-17.782v-8.613a6.392,6.392,0,0,1,7.32-6.318c6.079.877,14.951.536,22.693-6.081a1.643,1.643,0,0,1,2.511.455A8.035,8.035,0,0,0,202.325,103.217Z" transform="translate(-144.277 -76.968)" fill="#b77946"/>
      <path id="Trazado_159999" data-name="Trazado 159999" d="M168.817,143.176V128.262a6.385,6.385,0,0,0-5.372,6.3v8.613a19.907,19.907,0,0,0,22.688,19.689A19.787,19.787,0,0,1,168.817,143.176Z" transform="translate(-144.276 -100.706)" fill="#ad7042"/>
      <path id="Trazado_160000" data-name="Trazado 160000" d="M276.462,412.737v6.488a3.024,3.024,0,0,0,3.021,3.021h8.792a3.024,3.024,0,0,0,3.021-3.021v-6.488a3.024,3.024,0,0,0-3.021-3.021h-.151a4.41,4.41,0,1,0-8.491,0h-.151A3.024,3.024,0,0,0,276.462,412.737Zm11.61,6.286h-8.387V412.94h8.387Zm-5.383-10.5a1.19,1.19,0,1,1,1.19,1.189A1.191,1.191,0,0,1,282.689,408.527Z" transform="translate(-233.012 -317.293)"/>
      <path id="Trazado_160001" data-name="Trazado 160001" d="M150.725,94.961a1.612,1.612,0,1,0-3.161.629l1.487,7.47c.368,2.754-.873,3.716-3.271,3.716h-7.958V89.537a44.726,44.726,0,0,1,4.046-13.976,6.968,6.968,0,0,1,2.324,3.393c.207.639.085.155,1.926,9.375a1.612,1.612,0,0,0,3.161-.629c-1.84-9.207-1.716-9.288-2.619-11.214a10.8,10.8,0,0,0-4.465-4.56l.013.007c-.384-.209-.8-.394-.775-.384-.183-.08-.378-.162-.368-.158a11.643,11.643,0,0,0-1.6-.51l-11.55-4.069-4.243-3.6V61.293a21.555,21.555,0,0,0,5.291-4.119h0A21.4,21.4,0,0,0,134.6,45.259h0c.017-.121.044-.37.057-.491,4.951.242,8.432-4.485,6.343-8.645V22.815c0-9.617-5.233-12.956-6.823-13.748C124.364-2.649,104.6-3.026,93.789,8.016a1.614,1.614,0,0,0,1.152,2.739c.892,0,1.028-.463,2.412-1.639A25,25,0,0,1,106.094,4.3c9.936-2.829,20.1.037,25.821,7.092a1.548,1.548,0,0,0,.67.488c.212.085,5.189,2.178,5.189,10.935V33.144a7.006,7.006,0,0,0-3-.56V27.227a2.589,2.589,0,0,0-2.354-2.583h0a6.463,6.463,0,0,1-5.1-3.514,3.255,3.255,0,0,0-4.967-.9c-7.282,6.224-15.665,6.541-21.416,5.711a8.007,8.007,0,0,0-9.06,6.644,7.033,7.033,0,0,0-3.1.556c.049-5.678-.59-10.68,3.084-17.324a1.612,1.612,0,0,0-2.82-1.56,27.668,27.668,0,0,0-3.463,12.371c-.041,1.043-.016.708-.023,9.491-2.075,4.133,1.363,8.889,6.342,8.645a21.5,21.5,0,0,0,10.982,16.524v2.064l-4.36,3.5C84.66,71.621,85.1,71.56,85.1,71.559a10.558,10.558,0,0,0-5.205,4.932l1.447.709-1.461-.681c-1.049,2.7.061-2.155-5.545,25.958-.006.029-.011.059-.015.088-.605,4.262,1.612,7.434,6.456,7.434H96.139a1.612,1.612,0,1,0,0-3.223H91.957c0-18.519.006-17.329-.006-17.463A47.076,47.076,0,0,0,87.565,74.1c-.061.022-.661.264,10.586-3.71,1.864,7.158,5.652,14.99,11.3,19.786h0a5.894,5.894,0,0,0,7.665-.007c5.66-4.829,9.372-12.631,11.164-19.814,8.755,3.083,10.76,3.807,10.716,3.745A46.951,46.951,0,0,0,134.6,89.457v17.318h-31.06a1.612,1.612,0,1,0,0,3.223h42.241c4.4,0,6.636-2.614,6.545-6.353C152.314,103.145,152.194,102.524,150.725,94.961Zm-32.349-10.8-.964-3.177.954-1.37a3.768,3.768,0,0,0,3.481-1.079A33.465,33.465,0,0,1,118.377,84.162Zm-3.356,3.556a2.678,2.678,0,0,1-3.486,0h0c-.291-.247-.584-.512-.86-.773l1.4-4.631h2.369l1.409,4.645C115.683,87.13,115.32,87.463,115.02,87.718Zm-10.273-8.973a3.788,3.788,0,0,0,3.353.853L109.11,81l-.958,3.159A33.731,33.731,0,0,1,104.747,78.745Zm8.685-14.779h0a20.736,20.736,0,0,0,5.431-.732h0l.022-.006h0c.076-.023.724-.19,1.562-.487v.539L113.2,70.332l-7.1-6.879V62.74A21.006,21.006,0,0,0,113.432,63.966Zm5.33,12.376c-.229-.19-3.294-3.655-3.322-3.688l6.694-6.517,2.805,2.378-5.382,7.751A.568.568,0,0,1,118.762,76.342Zm-11.514.128a.561.561,0,0,1-.43-.2L101.5,68.6l2.9-2.322,6.572,6.371C107.374,76.61,107.628,76.465,107.248,76.47Zm3.471,1.251,2.481-2.735,2.515,2.8-.914,1.312h-3.093Zm27.665-39.042c0,1.738-1.752,2.978-3.606,2.869V35.81A3.2,3.2,0,0,1,138.384,38.679Zm-6.27-10.827ZM88.172,38.679c0-1.706,1.716-2.98,3.606-2.869v5.738C89.906,41.658,88.172,40.4,88.172,38.679ZM95,42.469v-7.96a5.049,5.049,0,0,1,1.645-4.255,4.8,4.8,0,0,1,3.833-1.121c6.41.926,15.772.557,23.971-6.451.206-.177,1.751,4.275,7.1,5.1v6.727c-.005,8.555.191,9.767-.706,13A18.277,18.277,0,0,1,95,42.469ZM88.733,89.537v17.239H80.775c-2.386,0-3.642-.95-3.27-3.715,5.071-25.441,4.455-25.2,7.183-27.5A44.722,44.722,0,0,1,88.733,89.537Z" transform="translate(-74.223 0.001)"/>
    </g>
  </g>
</svg>
